<svg width="1791" height="884" viewBox="0 0 1791 884" fill="none" xmlns="http://www.w3.org/2000/svg">
<g clip-path="url(#clip0_115_5007)">
<rect width="1791" height="884" fill="#D8C6BA"/>
<path d="M39.9961 850.41V-2144.92H1752.57V850.41H39.9961Z" stroke="black" stroke-opacity="0.99" stroke-width="4"/>
<ellipse cx="24.2847" cy="8.58726" rx="6.28469" ry="6.02379" fill="black" fill-opacity="0.99"/>
<ellipse cx="24.2847" cy="23.6459" rx="6.28469" ry="6.02379" fill="black" fill-opacity="0.99"/>
<ellipse cx="24.2847" cy="38.7059" rx="6.28469" ry="6.02379" fill="black" fill-opacity="0.99"/>
<ellipse cx="24.2847" cy="53.765" rx="6.28469" ry="6.02379" fill="black" fill-opacity="0.99"/>
<ellipse cx="24.2847" cy="68.8246" rx="6.28469" ry="6.02379" fill="black" fill-opacity="0.99"/>
<ellipse cx="24.2847" cy="83.8841" rx="6.28469" ry="6.02379" fill="black" fill-opacity="0.99"/>
<ellipse cx="24.2847" cy="98.9427" rx="6.28469" ry="6.02379" fill="black" fill-opacity="0.99"/>
<ellipse cx="24.2847" cy="114.003" rx="6.28469" ry="6.02379" fill="black" fill-opacity="0.99"/>
<ellipse cx="24.2847" cy="129.062" rx="6.28469" ry="6.02379" fill="black" fill-opacity="0.99"/>
<ellipse cx="24.2847" cy="144.122" rx="6.28469" ry="6.02379" fill="black" fill-opacity="0.99"/>
<ellipse cx="24.2847" cy="159.181" rx="6.28469" ry="6.02379" fill="black" fill-opacity="0.99"/>
<ellipse cx="24.2847" cy="174.241" rx="6.28469" ry="6.02379" fill="black" fill-opacity="0.99"/>
<ellipse cx="24.2847" cy="189.3" rx="6.28469" ry="6.02379" fill="black" fill-opacity="0.99"/>
<ellipse cx="24.2847" cy="204.36" rx="6.28469" ry="6.02379" fill="black" fill-opacity="0.99"/>
<ellipse cx="24.2847" cy="219.419" rx="6.28469" ry="6.02379" fill="black" fill-opacity="0.99"/>
<ellipse cx="24.2847" cy="234.479" rx="6.28469" ry="6.02379" fill="black" fill-opacity="0.99"/>
<ellipse cx="24.2847" cy="249.538" rx="6.28469" ry="6.02379" fill="black" fill-opacity="0.99"/>
<ellipse cx="24.2847" cy="264.597" rx="6.28469" ry="6.02379" fill="black" fill-opacity="0.99"/>
<ellipse cx="24.2847" cy="279.657" rx="6.28469" ry="6.02379" fill="black" fill-opacity="0.99"/>
<ellipse cx="24.2847" cy="294.716" rx="6.28469" ry="6.02379" fill="black" fill-opacity="0.99"/>
<ellipse cx="24.2847" cy="309.776" rx="6.28469" ry="6.02379" fill="black" fill-opacity="0.99"/>
<ellipse cx="24.2847" cy="324.836" rx="6.28469" ry="6.02379" fill="black" fill-opacity="0.99"/>
<ellipse cx="24.2847" cy="339.895" rx="6.28469" ry="6.02379" fill="black" fill-opacity="0.99"/>
<ellipse cx="24.2847" cy="354.953" rx="6.28469" ry="6.02379" fill="black" fill-opacity="0.99"/>
<ellipse cx="24.2847" cy="370.014" rx="6.28469" ry="6.02379" fill="black" fill-opacity="0.99"/>
<ellipse cx="24.2847" cy="385.074" rx="6.28469" ry="6.02379" fill="black" fill-opacity="0.99"/>
<ellipse cx="24.2847" cy="400.133" rx="6.28469" ry="6.02379" fill="black" fill-opacity="0.99"/>
<ellipse cx="24.2847" cy="415.193" rx="6.28469" ry="6.02379" fill="black" fill-opacity="0.99"/>
<ellipse cx="24.2847" cy="430.251" rx="6.28469" ry="6.02379" fill="black" fill-opacity="0.99"/>
<ellipse cx="24.2847" cy="445.311" rx="6.28469" ry="6.02379" fill="black" fill-opacity="0.99"/>
<ellipse cx="24.2847" cy="460.37" rx="6.28469" ry="6.02379" fill="black" fill-opacity="0.99"/>
<ellipse cx="24.2847" cy="475.43" rx="6.28469" ry="6.02379" fill="black" fill-opacity="0.99"/>
<ellipse cx="24.2847" cy="490.49" rx="6.28469" ry="6.02379" fill="black" fill-opacity="0.99"/>
<ellipse cx="24.2847" cy="505.549" rx="6.28469" ry="6.02379" fill="black" fill-opacity="0.99"/>
<ellipse cx="24.2847" cy="520.609" rx="6.28469" ry="6.02379" fill="black" fill-opacity="0.99"/>
<ellipse cx="24.2847" cy="535.667" rx="6.28469" ry="6.02379" fill="black" fill-opacity="0.99"/>
<ellipse cx="24.2847" cy="550.727" rx="6.28469" ry="6.02379" fill="black" fill-opacity="0.99"/>
<ellipse cx="24.2847" cy="565.787" rx="6.28469" ry="6.02379" fill="black" fill-opacity="0.99"/>
<ellipse cx="24.2847" cy="580.847" rx="6.28469" ry="6.02379" fill="black" fill-opacity="0.99"/>
<ellipse cx="24.2847" cy="595.906" rx="6.28469" ry="6.02379" fill="black" fill-opacity="0.99"/>
<ellipse cx="24.2847" cy="610.965" rx="6.28469" ry="6.02379" fill="black" fill-opacity="0.99"/>
<ellipse cx="24.2847" cy="626.025" rx="6.28469" ry="6.02379" fill="black" fill-opacity="0.99"/>
<ellipse cx="24.2847" cy="641.084" rx="6.28469" ry="6.02379" fill="black" fill-opacity="0.99"/>
<ellipse cx="24.2847" cy="656.143" rx="6.28469" ry="6.02379" fill="black" fill-opacity="0.99"/>
<ellipse cx="24.2847" cy="671.203" rx="6.28469" ry="6.02379" fill="black" fill-opacity="0.99"/>
<ellipse cx="24.2847" cy="686.263" rx="6.28469" ry="6.02379" fill="black" fill-opacity="0.99"/>
<ellipse cx="24.2847" cy="701.322" rx="6.28469" ry="6.02379" fill="black" fill-opacity="0.99"/>
<ellipse cx="24.2847" cy="716.381" rx="6.28469" ry="6.02379" fill="black" fill-opacity="0.99"/>
<ellipse cx="24.2847" cy="731.441" rx="6.28469" ry="6.02379" fill="black" fill-opacity="0.99"/>
<ellipse cx="24.2847" cy="746.5" rx="6.28469" ry="6.02379" fill="black" fill-opacity="0.99"/>
<ellipse cx="24.2847" cy="761.56" rx="6.28469" ry="6.02379" fill="black" fill-opacity="0.99"/>
<ellipse cx="24.2847" cy="776.62" rx="6.28469" ry="6.02379" fill="black" fill-opacity="0.99"/>
<ellipse cx="24.2847" cy="791.678" rx="6.28469" ry="6.02379" fill="black" fill-opacity="0.99"/>
<ellipse cx="24.2847" cy="806.738" rx="6.28469" ry="6.02379" fill="black" fill-opacity="0.99"/>
<ellipse cx="24.2847" cy="821.798" rx="6.28469" ry="6.02379" fill="black" fill-opacity="0.99"/>
<ellipse cx="24.2847" cy="836.857" rx="6.28469" ry="6.02379" fill="black" fill-opacity="0.99"/>
<ellipse cx="24.2847" cy="851.916" rx="6.28469" ry="6.02379" fill="black" fill-opacity="0.99"/>
<ellipse cx="24.2847" cy="866.976" rx="6.28469" ry="6.02379" fill="black" fill-opacity="0.99"/>
<ellipse cx="39.9956" cy="866.976" rx="6.28469" ry="6.02379" fill="black" fill-opacity="0.99"/>
<ellipse cx="55.7066" cy="866.976" rx="6.28469" ry="6.02379" fill="black" fill-opacity="0.99"/>
<ellipse cx="71.4194" cy="866.976" rx="6.28469" ry="6.02379" fill="black" fill-opacity="0.99"/>
<ellipse cx="87.1323" cy="866.976" rx="6.28469" ry="6.02379" fill="black" fill-opacity="0.99"/>
<ellipse cx="102.843" cy="866.976" rx="6.28469" ry="6.02379" fill="black" fill-opacity="0.99"/>
<ellipse cx="118.554" cy="866.976" rx="6.28469" ry="6.02379" fill="black" fill-opacity="0.99"/>
<ellipse cx="134.265" cy="866.976" rx="6.28469" ry="6.02379" fill="black" fill-opacity="0.99"/>
<ellipse cx="149.978" cy="866.976" rx="6.28469" ry="6.02379" fill="black" fill-opacity="0.99"/>
<ellipse cx="165.691" cy="866.976" rx="6.28469" ry="6.02379" fill="black" fill-opacity="0.99"/>
<ellipse cx="181.404" cy="866.976" rx="6.28469" ry="6.02379" fill="black" fill-opacity="0.99"/>
<ellipse cx="197.113" cy="866.976" rx="6.28469" ry="6.02379" fill="black" fill-opacity="0.99"/>
<ellipse cx="212.828" cy="866.976" rx="6.28469" ry="6.02379" fill="black" fill-opacity="0.99"/>
<ellipse cx="228.539" cy="866.976" rx="6.28469" ry="6.02379" fill="black" fill-opacity="0.99"/>
<ellipse cx="244.25" cy="866.976" rx="6.28469" ry="6.02379" fill="black" fill-opacity="0.99"/>
<ellipse cx="259.96" cy="866.976" rx="6.28469" ry="6.02379" fill="black" fill-opacity="0.99"/>
<ellipse cx="275.671" cy="866.976" rx="6.28469" ry="6.02379" fill="black" fill-opacity="0.99"/>
<ellipse cx="291.382" cy="866.976" rx="6.28469" ry="6.02379" fill="black" fill-opacity="0.99"/>
<ellipse cx="307.095" cy="866.976" rx="6.28469" ry="6.02379" fill="black" fill-opacity="0.99"/>
<ellipse cx="322.808" cy="866.976" rx="6.28469" ry="6.02379" fill="black" fill-opacity="0.99"/>
<ellipse cx="338.519" cy="866.976" rx="6.28469" ry="6.02379" fill="black" fill-opacity="0.99"/>
<ellipse cx="354.23" cy="866.976" rx="6.28469" ry="6.02379" fill="black" fill-opacity="0.99"/>
<ellipse cx="369.943" cy="866.976" rx="6.28469" ry="6.02379" fill="black" fill-opacity="0.99"/>
<ellipse cx="385.652" cy="866.976" rx="6.28469" ry="6.02379" fill="black" fill-opacity="0.99"/>
<ellipse cx="401.365" cy="866.976" rx="6.28469" ry="6.02379" fill="black" fill-opacity="0.99"/>
<ellipse cx="417.078" cy="866.976" rx="6.28469" ry="6.02379" fill="black" fill-opacity="0.99"/>
<ellipse cx="432.789" cy="866.976" rx="6.28469" ry="6.02379" fill="black" fill-opacity="0.99"/>
<ellipse cx="448.501" cy="866.976" rx="6.28469" ry="6.02379" fill="black" fill-opacity="0.99"/>
<ellipse cx="464.214" cy="866.976" rx="6.28469" ry="6.02379" fill="black" fill-opacity="0.99"/>
<ellipse cx="479.925" cy="866.976" rx="6.28469" ry="6.02379" fill="black" fill-opacity="0.99"/>
<ellipse cx="495.636" cy="866.976" rx="6.28469" ry="6.02379" fill="black" fill-opacity="0.99"/>
<ellipse cx="511.349" cy="866.976" rx="6.28469" ry="6.02379" fill="black" fill-opacity="0.99"/>
<ellipse cx="527.058" cy="866.976" rx="6.28469" ry="6.02379" fill="black" fill-opacity="0.99"/>
<ellipse cx="542.773" cy="866.976" rx="6.28469" ry="6.02379" fill="black" fill-opacity="0.99"/>
<ellipse cx="558.482" cy="866.976" rx="6.28469" ry="6.02379" fill="black" fill-opacity="0.99"/>
<ellipse cx="574.195" cy="866.976" rx="6.28469" ry="6.02379" fill="black" fill-opacity="0.99"/>
<ellipse cx="589.906" cy="866.976" rx="6.28469" ry="6.02379" fill="black" fill-opacity="0.99"/>
<ellipse cx="605.619" cy="866.976" rx="6.28469" ry="6.02379" fill="black" fill-opacity="0.99"/>
<ellipse cx="621.33" cy="866.976" rx="6.28469" ry="6.02379" fill="black" fill-opacity="0.99"/>
<ellipse cx="637.042" cy="866.976" rx="6.28469" ry="6.02379" fill="black" fill-opacity="0.99"/>
<ellipse cx="652.753" cy="866.976" rx="6.28469" ry="6.02379" fill="black" fill-opacity="0.99"/>
<ellipse cx="668.464" cy="866.976" rx="6.28469" ry="6.02379" fill="black" fill-opacity="0.99"/>
<ellipse cx="684.175" cy="866.976" rx="6.28469" ry="6.02379" fill="black" fill-opacity="0.99"/>
<ellipse cx="699.886" cy="866.976" rx="6.28469" ry="6.02379" fill="black" fill-opacity="0.99"/>
<ellipse cx="715.597" cy="866.976" rx="6.28469" ry="6.02379" fill="black" fill-opacity="0.99"/>
<ellipse cx="731.312" cy="866.976" rx="6.28469" ry="6.02379" fill="black" fill-opacity="0.99"/>
<ellipse cx="747.023" cy="866.976" rx="6.28469" ry="6.02379" fill="black" fill-opacity="0.99"/>
<ellipse cx="762.734" cy="866.976" rx="6.28469" ry="6.02379" fill="black" fill-opacity="0.99"/>
<ellipse cx="778.449" cy="866.976" rx="6.28469" ry="6.02379" fill="black" fill-opacity="0.99"/>
<ellipse cx="794.158" cy="866.976" rx="6.28469" ry="6.02379" fill="black" fill-opacity="0.99"/>
<ellipse cx="762.734" cy="836.857" rx="6.28469" ry="6.02379" fill="black" fill-opacity="0.99"/>
<ellipse cx="778.449" cy="836.857" rx="6.28469" ry="6.02379" fill="black" fill-opacity="0.99"/>
<ellipse cx="794.158" cy="836.857" rx="6.28469" ry="6.02379" fill="black" fill-opacity="0.99"/>
<ellipse cx="809.871" cy="836.857" rx="6.28469" ry="6.02379" fill="black" fill-opacity="0.99"/>
<ellipse cx="825.582" cy="836.857" rx="6.28469" ry="6.02379" fill="black" fill-opacity="0.99"/>
<ellipse cx="841.292" cy="836.857" rx="6.28469" ry="6.02379" fill="black" fill-opacity="0.99"/>
<ellipse cx="857.003" cy="836.857" rx="6.28469" ry="6.02379" fill="black" fill-opacity="0.99"/>
<ellipse cx="872.718" cy="836.857" rx="6.28469" ry="6.02379" fill="black" fill-opacity="0.99"/>
<ellipse cx="888.427" cy="836.857" rx="6.28469" ry="6.02379" fill="black" fill-opacity="0.99"/>
<ellipse cx="904.14" cy="836.857" rx="6.28469" ry="6.02379" fill="black" fill-opacity="0.99"/>
<ellipse cx="919.851" cy="836.857" rx="6.28469" ry="6.02379" fill="black" fill-opacity="0.99"/>
<ellipse cx="935.564" cy="836.857" rx="6.28469" ry="6.02379" fill="black" fill-opacity="0.99"/>
<ellipse cx="951.275" cy="836.857" rx="6.28469" ry="6.02379" fill="black" fill-opacity="0.99"/>
<ellipse cx="966.988" cy="836.857" rx="6.28469" ry="6.02379" fill="black" fill-opacity="0.99"/>
<ellipse cx="982.699" cy="836.857" rx="6.28469" ry="6.02379" fill="black" fill-opacity="0.99"/>
<ellipse cx="998.41" cy="836.857" rx="6.28469" ry="6.02379" fill="black" fill-opacity="0.99"/>
<ellipse cx="1014.12" cy="836.857" rx="6.28469" ry="6.02379" fill="black" fill-opacity="0.99"/>
<ellipse cx="1029.84" cy="836.857" rx="6.28469" ry="6.02379" fill="black" fill-opacity="0.99"/>
<ellipse cx="1045.55" cy="836.857" rx="6.28469" ry="6.02379" fill="black" fill-opacity="0.99"/>
<ellipse cx="1061.26" cy="836.857" rx="6.28469" ry="6.02379" fill="black" fill-opacity="0.99"/>
<ellipse cx="1076.97" cy="836.857" rx="6.28469" ry="6.02379" fill="black" fill-opacity="0.99"/>
<ellipse cx="1092.68" cy="836.857" rx="6.28469" ry="6.02379" fill="black" fill-opacity="0.99"/>
<ellipse cx="1108.39" cy="836.857" rx="6.28469" ry="6.02379" fill="black" fill-opacity="0.99"/>
<ellipse cx="1124.1" cy="836.857" rx="6.28469" ry="6.02379" fill="black" fill-opacity="0.99"/>
<ellipse cx="1139.82" cy="836.857" rx="6.28469" ry="6.02379" fill="black" fill-opacity="0.99"/>
<ellipse cx="1155.53" cy="836.857" rx="6.28469" ry="6.02379" fill="black" fill-opacity="0.99"/>
<ellipse cx="1171.24" cy="836.857" rx="6.28469" ry="6.02379" fill="black" fill-opacity="0.99"/>
<ellipse cx="1186.95" cy="836.857" rx="6.28469" ry="6.02379" fill="black" fill-opacity="0.99"/>
<ellipse cx="1202.66" cy="836.857" rx="6.28469" ry="6.02379" fill="black" fill-opacity="0.99"/>
<ellipse cx="1218.37" cy="836.857" rx="6.28469" ry="6.02379" fill="black" fill-opacity="0.99"/>
<ellipse cx="1234.09" cy="836.857" rx="6.28469" ry="6.02379" fill="black" fill-opacity="0.99"/>
<ellipse cx="1249.8" cy="836.857" rx="6.28469" ry="6.02379" fill="black" fill-opacity="0.99"/>
<ellipse cx="1265.51" cy="836.857" rx="6.28469" ry="6.02379" fill="black" fill-opacity="0.99"/>
<ellipse cx="1281.22" cy="836.857" rx="6.28469" ry="6.02379" fill="black" fill-opacity="0.99"/>
<ellipse cx="1296.94" cy="836.857" rx="6.28469" ry="6.02379" fill="black" fill-opacity="0.99"/>
<ellipse cx="1312.64" cy="836.857" rx="6.28469" ry="6.02379" fill="black" fill-opacity="0.99"/>
<ellipse cx="1328.36" cy="836.857" rx="6.28469" ry="6.02379" fill="black" fill-opacity="0.99"/>
<ellipse cx="1344.07" cy="836.857" rx="6.28469" ry="6.02379" fill="black" fill-opacity="0.99"/>
<ellipse cx="1359.78" cy="836.857" rx="6.28469" ry="6.02379" fill="black" fill-opacity="0.99"/>
<ellipse cx="1375.49" cy="836.857" rx="6.28469" ry="6.02379" fill="black" fill-opacity="0.99"/>
<ellipse cx="1391.21" cy="836.857" rx="6.28469" ry="6.02379" fill="black" fill-opacity="0.99"/>
<ellipse cx="1406.92" cy="836.857" rx="6.28469" ry="6.02379" fill="black" fill-opacity="0.99"/>
<ellipse cx="1422.63" cy="836.857" rx="6.28469" ry="6.02379" fill="black" fill-opacity="0.99"/>
<ellipse cx="1438.34" cy="836.857" rx="6.28469" ry="6.02379" fill="black" fill-opacity="0.99"/>
<ellipse cx="71.4194" cy="836.857" rx="6.28469" ry="6.02379" fill="black" fill-opacity="0.99"/>
<ellipse cx="87.1323" cy="836.857" rx="6.28469" ry="6.02379" fill="black" fill-opacity="0.99"/>
<ellipse cx="102.843" cy="836.857" rx="6.28469" ry="6.02379" fill="black" fill-opacity="0.99"/>
<ellipse cx="118.554" cy="836.857" rx="6.28469" ry="6.02379" fill="black" fill-opacity="0.99"/>
<ellipse cx="134.265" cy="836.857" rx="6.28469" ry="6.02379" fill="black" fill-opacity="0.99"/>
<ellipse cx="149.978" cy="836.857" rx="6.28469" ry="6.02379" fill="black" fill-opacity="0.99"/>
<ellipse cx="165.691" cy="836.857" rx="6.28469" ry="6.02379" fill="black" fill-opacity="0.99"/>
<ellipse cx="181.404" cy="836.857" rx="6.28469" ry="6.02379" fill="black" fill-opacity="0.99"/>
<ellipse cx="197.113" cy="836.857" rx="6.28469" ry="6.02379" fill="black" fill-opacity="0.99"/>
<ellipse cx="212.828" cy="836.857" rx="6.28469" ry="6.02379" fill="black" fill-opacity="0.99"/>
<ellipse cx="228.539" cy="836.857" rx="6.28469" ry="6.02379" fill="black" fill-opacity="0.99"/>
<ellipse cx="244.25" cy="836.857" rx="6.28469" ry="6.02379" fill="black" fill-opacity="0.99"/>
<ellipse cx="259.96" cy="836.857" rx="6.28469" ry="6.02379" fill="black" fill-opacity="0.99"/>
<ellipse cx="275.671" cy="836.857" rx="6.28469" ry="6.02379" fill="black" fill-opacity="0.99"/>
<ellipse cx="291.382" cy="836.857" rx="6.28469" ry="6.02379" fill="black" fill-opacity="0.99"/>
<ellipse cx="307.095" cy="836.857" rx="6.28469" ry="6.02379" fill="black" fill-opacity="0.99"/>
<ellipse cx="322.808" cy="836.857" rx="6.28469" ry="6.02379" fill="black" fill-opacity="0.99"/>
<ellipse cx="338.519" cy="836.857" rx="6.28469" ry="6.02379" fill="black" fill-opacity="0.99"/>
<ellipse cx="354.23" cy="836.857" rx="6.28469" ry="6.02379" fill="black" fill-opacity="0.99"/>
<ellipse cx="369.943" cy="836.857" rx="6.28469" ry="6.02379" fill="black" fill-opacity="0.99"/>
<ellipse cx="385.652" cy="836.857" rx="6.28469" ry="6.02379" fill="black" fill-opacity="0.99"/>
<ellipse cx="401.365" cy="836.857" rx="6.28469" ry="6.02379" fill="black" fill-opacity="0.99"/>
<ellipse cx="417.078" cy="836.857" rx="6.28469" ry="6.02379" fill="black" fill-opacity="0.99"/>
<ellipse cx="432.789" cy="836.857" rx="6.28469" ry="6.02379" fill="black" fill-opacity="0.99"/>
<ellipse cx="448.501" cy="836.857" rx="6.28469" ry="6.02379" fill="black" fill-opacity="0.99"/>
<ellipse cx="464.214" cy="836.857" rx="6.28469" ry="6.02379" fill="black" fill-opacity="0.99"/>
<ellipse cx="479.925" cy="836.857" rx="6.28469" ry="6.02379" fill="black" fill-opacity="0.99"/>
<ellipse cx="495.636" cy="836.857" rx="6.28469" ry="6.02379" fill="black" fill-opacity="0.99"/>
<ellipse cx="511.349" cy="836.857" rx="6.28469" ry="6.02379" fill="black" fill-opacity="0.99"/>
<ellipse cx="527.058" cy="836.857" rx="6.28469" ry="6.02379" fill="black" fill-opacity="0.99"/>
<ellipse cx="542.773" cy="836.857" rx="6.28469" ry="6.02379" fill="black" fill-opacity="0.99"/>
<ellipse cx="558.482" cy="836.857" rx="6.28469" ry="6.02379" fill="black" fill-opacity="0.99"/>
<ellipse cx="574.195" cy="836.857" rx="6.28469" ry="6.02379" fill="black" fill-opacity="0.99"/>
<ellipse cx="589.906" cy="836.857" rx="6.28469" ry="6.02379" fill="black" fill-opacity="0.99"/>
<ellipse cx="605.619" cy="836.857" rx="6.28469" ry="6.02379" fill="black" fill-opacity="0.99"/>
<ellipse cx="621.33" cy="836.857" rx="6.28469" ry="6.02379" fill="black" fill-opacity="0.99"/>
<ellipse cx="637.042" cy="836.857" rx="6.28469" ry="6.02379" fill="black" fill-opacity="0.99"/>
<ellipse cx="652.753" cy="836.857" rx="6.28469" ry="6.02379" fill="black" fill-opacity="0.99"/>
<ellipse cx="668.464" cy="836.857" rx="6.28469" ry="6.02379" fill="black" fill-opacity="0.99"/>
<ellipse cx="684.175" cy="836.857" rx="6.28469" ry="6.02379" fill="black" fill-opacity="0.99"/>
<ellipse cx="699.886" cy="836.857" rx="6.28469" ry="6.02379" fill="black" fill-opacity="0.99"/>
<ellipse cx="715.597" cy="836.857" rx="6.28469" ry="6.02379" fill="black" fill-opacity="0.99"/>
<ellipse cx="731.312" cy="836.857" rx="6.28469" ry="6.02379" fill="black" fill-opacity="0.99"/>
<ellipse cx="747.023" cy="836.857" rx="6.28469" ry="6.02379" fill="black" fill-opacity="0.99"/>
<ellipse cx="809.871" cy="866.976" rx="6.28469" ry="6.02379" fill="black" fill-opacity="0.99"/>
<ellipse cx="825.582" cy="866.976" rx="6.28469" ry="6.02379" fill="black" fill-opacity="0.99"/>
<ellipse cx="841.292" cy="866.976" rx="6.28469" ry="6.02379" fill="black" fill-opacity="0.99"/>
<ellipse cx="857.003" cy="866.976" rx="6.28469" ry="6.02379" fill="black" fill-opacity="0.99"/>
<ellipse cx="872.718" cy="866.976" rx="6.28469" ry="6.02379" fill="black" fill-opacity="0.99"/>
<ellipse cx="888.427" cy="866.976" rx="6.28469" ry="6.02379" fill="black" fill-opacity="0.99"/>
<ellipse cx="904.14" cy="866.976" rx="6.28469" ry="6.02379" fill="black" fill-opacity="0.99"/>
<ellipse cx="919.851" cy="866.976" rx="6.28469" ry="6.02379" fill="black" fill-opacity="0.99"/>
<ellipse cx="935.564" cy="866.976" rx="6.28469" ry="6.02379" fill="black" fill-opacity="0.99"/>
<ellipse cx="951.275" cy="866.976" rx="6.28469" ry="6.02379" fill="black" fill-opacity="0.99"/>
<ellipse cx="966.988" cy="866.976" rx="6.28469" ry="6.02379" fill="black" fill-opacity="0.99"/>
<ellipse cx="982.699" cy="866.976" rx="6.28469" ry="6.02379" fill="black" fill-opacity="0.99"/>
<ellipse cx="998.41" cy="866.976" rx="6.28469" ry="6.02379" fill="black" fill-opacity="0.99"/>
<ellipse cx="1014.12" cy="866.976" rx="6.28469" ry="6.02379" fill="black" fill-opacity="0.99"/>
<ellipse cx="1029.84" cy="866.976" rx="6.28469" ry="6.02379" fill="black" fill-opacity="0.99"/>
<ellipse cx="1045.55" cy="866.976" rx="6.28469" ry="6.02379" fill="black" fill-opacity="0.99"/>
<ellipse cx="1061.26" cy="866.976" rx="6.28469" ry="6.02379" fill="black" fill-opacity="0.99"/>
<ellipse cx="1076.97" cy="866.976" rx="6.28469" ry="6.02379" fill="black" fill-opacity="0.99"/>
<ellipse cx="1092.68" cy="866.976" rx="6.28469" ry="6.02379" fill="black" fill-opacity="0.99"/>
<ellipse cx="1108.39" cy="866.976" rx="6.28469" ry="6.02379" fill="black" fill-opacity="0.99"/>
<ellipse cx="1124.1" cy="866.976" rx="6.28469" ry="6.02379" fill="black" fill-opacity="0.99"/>
<ellipse cx="1139.82" cy="866.976" rx="6.28469" ry="6.02379" fill="black" fill-opacity="0.99"/>
<ellipse cx="1155.53" cy="866.976" rx="6.28469" ry="6.02379" fill="black" fill-opacity="0.99"/>
<ellipse cx="1171.24" cy="866.976" rx="6.28469" ry="6.02379" fill="black" fill-opacity="0.99"/>
<ellipse cx="1186.95" cy="866.976" rx="6.28469" ry="6.02379" fill="black" fill-opacity="0.99"/>
<ellipse cx="1202.66" cy="866.976" rx="6.28469" ry="6.02379" fill="black" fill-opacity="0.99"/>
<ellipse cx="1218.37" cy="866.976" rx="6.28469" ry="6.02379" fill="black" fill-opacity="0.99"/>
<ellipse cx="1234.09" cy="866.976" rx="6.28469" ry="6.02379" fill="black" fill-opacity="0.99"/>
<ellipse cx="1249.8" cy="866.976" rx="6.28469" ry="6.02379" fill="black" fill-opacity="0.99"/>
<ellipse cx="1265.51" cy="866.976" rx="6.28469" ry="6.02379" fill="black" fill-opacity="0.99"/>
<ellipse cx="1281.22" cy="866.976" rx="6.28469" ry="6.02379" fill="black" fill-opacity="0.99"/>
<ellipse cx="1296.94" cy="866.976" rx="6.28469" ry="6.02379" fill="black" fill-opacity="0.99"/>
<ellipse cx="1312.64" cy="866.976" rx="6.28469" ry="6.02379" fill="black" fill-opacity="0.99"/>
<ellipse cx="1328.36" cy="866.976" rx="6.28469" ry="6.02379" fill="black" fill-opacity="0.99"/>
<ellipse cx="1344.07" cy="866.976" rx="6.28469" ry="6.02379" fill="black" fill-opacity="0.99"/>
<ellipse cx="1359.78" cy="866.976" rx="6.28469" ry="6.02379" fill="black" fill-opacity="0.99"/>
<ellipse cx="1375.49" cy="866.976" rx="6.28469" ry="6.02379" fill="black" fill-opacity="0.99"/>
<ellipse cx="1391.21" cy="866.976" rx="6.28469" ry="6.02379" fill="black" fill-opacity="0.99"/>
<ellipse cx="1406.92" cy="866.976" rx="6.28469" ry="6.02379" fill="black" fill-opacity="0.99"/>
<ellipse cx="1422.63" cy="866.976" rx="6.28469" ry="6.02379" fill="black" fill-opacity="0.99"/>
<ellipse cx="1438.34" cy="866.976" rx="6.28469" ry="6.02379" fill="black" fill-opacity="0.99"/>
<ellipse cx="1454.05" cy="866.976" rx="6.28469" ry="6.02379" fill="black" fill-opacity="0.99"/>
<ellipse cx="1469.76" cy="866.976" rx="6.28469" ry="6.02379" fill="black" fill-opacity="0.99"/>
<ellipse cx="1485.47" cy="866.976" rx="6.28469" ry="6.02379" fill="black" fill-opacity="0.99"/>
<ellipse cx="1501.19" cy="866.976" rx="6.28469" ry="6.02379" fill="black" fill-opacity="0.99"/>
<ellipse cx="1516.9" cy="866.976" rx="6.28469" ry="6.02379" fill="black" fill-opacity="0.99"/>
<ellipse cx="1532.61" cy="866.976" rx="6.28469" ry="6.02379" fill="black" fill-opacity="0.99"/>
<ellipse cx="1548.32" cy="866.976" rx="6.28469" ry="6.02379" fill="black" fill-opacity="0.99"/>
<ellipse cx="1564.03" cy="866.976" rx="6.28469" ry="6.02379" fill="black" fill-opacity="0.99"/>
<ellipse cx="1579.74" cy="866.976" rx="6.28469" ry="6.02379" fill="black" fill-opacity="0.99"/>
<ellipse cx="1595.46" cy="866.976" rx="6.28469" ry="6.02379" fill="black" fill-opacity="0.99"/>
<ellipse cx="1611.17" cy="866.976" rx="6.28469" ry="6.02379" fill="black" fill-opacity="0.99"/>
<ellipse cx="1626.88" cy="866.976" rx="6.28469" ry="6.02379" fill="black" fill-opacity="0.99"/>
<ellipse cx="1642.59" cy="866.976" rx="6.28469" ry="6.02379" fill="black" fill-opacity="0.99"/>
<ellipse cx="1658.3" cy="866.976" rx="6.28469" ry="6.02379" fill="black" fill-opacity="0.99"/>
<ellipse cx="1674.02" cy="866.976" rx="6.28469" ry="6.02379" fill="black" fill-opacity="0.99"/>
<ellipse cx="1689.73" cy="866.976" rx="6.28469" ry="6.02379" fill="black" fill-opacity="0.99"/>
<ellipse cx="1705.44" cy="866.976" rx="6.28469" ry="6.02379" fill="black" fill-opacity="0.99"/>
<ellipse cx="1721.15" cy="866.976" rx="6.28469" ry="6.02379" fill="black" fill-opacity="0.99"/>
<ellipse cx="1736.86" cy="866.976" rx="6.28469" ry="6.02379" fill="black" fill-opacity="0.99"/>
<ellipse cx="1454.05" cy="836.857" rx="6.28469" ry="6.02379" fill="black" fill-opacity="0.99"/>
<ellipse cx="1469.76" cy="836.857" rx="6.28469" ry="6.02379" fill="black" fill-opacity="0.99"/>
<ellipse cx="1485.47" cy="836.857" rx="6.28469" ry="6.02379" fill="black" fill-opacity="0.99"/>
<ellipse cx="1501.19" cy="836.857" rx="6.28469" ry="6.02379" fill="black" fill-opacity="0.99"/>
<ellipse cx="1516.9" cy="836.857" rx="6.28469" ry="6.02379" fill="black" fill-opacity="0.99"/>
<ellipse cx="1532.61" cy="836.857" rx="6.28469" ry="6.02379" fill="black" fill-opacity="0.99"/>
<ellipse cx="1548.32" cy="836.857" rx="6.28469" ry="6.02379" fill="black" fill-opacity="0.99"/>
<ellipse cx="1564.03" cy="836.857" rx="6.28469" ry="6.02379" fill="black" fill-opacity="0.99"/>
<ellipse cx="1579.74" cy="836.857" rx="6.28469" ry="6.02379" fill="black" fill-opacity="0.99"/>
<ellipse cx="1595.46" cy="836.857" rx="6.28469" ry="6.02379" fill="black" fill-opacity="0.99"/>
<ellipse cx="1611.17" cy="836.857" rx="6.28469" ry="6.02379" fill="black" fill-opacity="0.99"/>
<ellipse cx="1626.88" cy="836.857" rx="6.28469" ry="6.02379" fill="black" fill-opacity="0.99"/>
<ellipse cx="1642.59" cy="836.857" rx="6.28469" ry="6.02379" fill="black" fill-opacity="0.99"/>
<ellipse cx="1658.3" cy="836.857" rx="6.28469" ry="6.02379" fill="black" fill-opacity="0.99"/>
<ellipse cx="1674.02" cy="836.857" rx="6.28469" ry="6.02379" fill="black" fill-opacity="0.99"/>
<ellipse cx="1689.73" cy="836.857" rx="6.28469" ry="6.02379" fill="black" fill-opacity="0.99"/>
<ellipse cx="1705.44" cy="836.857" rx="6.28469" ry="6.02379" fill="black" fill-opacity="0.99"/>
<ellipse cx="1721.15" cy="836.857" rx="6.28469" ry="6.02379" fill="black" fill-opacity="0.99"/>
<ellipse cx="1736.86" cy="836.857" rx="6.28469" ry="6.02379" fill="black" fill-opacity="0.99"/>
<ellipse cx="1736.86" cy="821.798" rx="6.28469" ry="6.02379" fill="black" fill-opacity="0.99"/>
<ellipse cx="1752.57" cy="866.976" rx="6.28469" ry="6.02379" fill="black" fill-opacity="0.99"/>
<ellipse cx="1768.28" cy="866.976" rx="6.28469" ry="6.02379" fill="black" fill-opacity="0.99"/>
<ellipse cx="1768.28" cy="851.916" rx="6.28469" ry="6.02379" fill="black" fill-opacity="0.99"/>
<ellipse cx="1768.28" cy="836.857" rx="6.28469" ry="6.02379" fill="black" fill-opacity="0.99"/>
<ellipse cx="1768.28" cy="821.798" rx="6.28469" ry="6.02379" fill="black" fill-opacity="0.99"/>
<ellipse cx="1768.28" cy="806.738" rx="6.28469" ry="6.02379" fill="black" fill-opacity="0.99"/>
<ellipse cx="1768.28" cy="791.678" rx="6.28469" ry="6.02379" fill="black" fill-opacity="0.99"/>
<ellipse cx="1768.28" cy="776.62" rx="6.28469" ry="6.02379" fill="black" fill-opacity="0.99"/>
<ellipse cx="1768.28" cy="761.56" rx="6.28469" ry="6.02379" fill="black" fill-opacity="0.99"/>
<ellipse cx="1768.28" cy="746.5" rx="6.28469" ry="6.02379" fill="black" fill-opacity="0.99"/>
<ellipse cx="1768.28" cy="731.441" rx="6.28469" ry="6.02379" fill="black" fill-opacity="0.99"/>
<ellipse cx="1768.28" cy="716.381" rx="6.28469" ry="6.02379" fill="black" fill-opacity="0.99"/>
<ellipse cx="1768.28" cy="701.322" rx="6.28469" ry="6.02379" fill="black" fill-opacity="0.99"/>
<ellipse cx="1768.28" cy="686.263" rx="6.28469" ry="6.02379" fill="black" fill-opacity="0.99"/>
<ellipse cx="1768.28" cy="671.203" rx="6.28469" ry="6.02379" fill="black" fill-opacity="0.99"/>
<ellipse cx="1768.28" cy="656.143" rx="6.28469" ry="6.02379" fill="black" fill-opacity="0.99"/>
<ellipse cx="1768.28" cy="641.084" rx="6.28469" ry="6.02379" fill="black" fill-opacity="0.99"/>
<ellipse cx="1768.28" cy="626.025" rx="6.28469" ry="6.02379" fill="black" fill-opacity="0.99"/>
<ellipse cx="1768.28" cy="610.965" rx="6.28469" ry="6.02379" fill="black" fill-opacity="0.99"/>
<ellipse cx="1768.28" cy="595.906" rx="6.28469" ry="6.02379" fill="black" fill-opacity="0.99"/>
<ellipse cx="1768.28" cy="580.847" rx="6.28469" ry="6.02379" fill="black" fill-opacity="0.99"/>
<ellipse cx="1768.28" cy="565.787" rx="6.28469" ry="6.02379" fill="black" fill-opacity="0.99"/>
<ellipse cx="1768.28" cy="550.727" rx="6.28469" ry="6.02379" fill="black" fill-opacity="0.99"/>
<ellipse cx="1768.28" cy="535.667" rx="6.28469" ry="6.02379" fill="black" fill-opacity="0.99"/>
<ellipse cx="1768.28" cy="520.609" rx="6.28469" ry="6.02379" fill="black" fill-opacity="0.99"/>
<ellipse cx="1768.28" cy="505.549" rx="6.28469" ry="6.02379" fill="black" fill-opacity="0.99"/>
<ellipse cx="1768.28" cy="490.49" rx="6.28469" ry="6.02379" fill="black" fill-opacity="0.99"/>
<ellipse cx="1768.28" cy="475.43" rx="6.28469" ry="6.02379" fill="black" fill-opacity="0.99"/>
<ellipse cx="1768.28" cy="460.37" rx="6.28469" ry="6.02379" fill="black" fill-opacity="0.99"/>
<ellipse cx="1768.28" cy="445.311" rx="6.28469" ry="6.02379" fill="black" fill-opacity="0.99"/>
<ellipse cx="1768.28" cy="430.251" rx="6.28469" ry="6.02379" fill="black" fill-opacity="0.99"/>
<ellipse cx="1768.28" cy="415.193" rx="6.28469" ry="6.02379" fill="black" fill-opacity="0.99"/>
<ellipse cx="1768.28" cy="400.133" rx="6.28469" ry="6.02379" fill="black" fill-opacity="0.99"/>
<ellipse cx="1768.28" cy="385.074" rx="6.28469" ry="6.02379" fill="black" fill-opacity="0.99"/>
<ellipse cx="1768.28" cy="370.014" rx="6.28469" ry="6.02379" fill="black" fill-opacity="0.99"/>
<ellipse cx="1768.28" cy="354.953" rx="6.28469" ry="6.02379" fill="black" fill-opacity="0.99"/>
<ellipse cx="1768.28" cy="339.895" rx="6.28469" ry="6.02379" fill="black" fill-opacity="0.99"/>
<ellipse cx="1768.28" cy="324.836" rx="6.28469" ry="6.02379" fill="black" fill-opacity="0.99"/>
<ellipse cx="1768.28" cy="309.776" rx="6.28469" ry="6.02379" fill="black" fill-opacity="0.99"/>
<ellipse cx="1768.28" cy="294.716" rx="6.28469" ry="6.02379" fill="black" fill-opacity="0.99"/>
<ellipse cx="1768.28" cy="279.657" rx="6.28469" ry="6.02379" fill="black" fill-opacity="0.99"/>
<ellipse cx="1768.28" cy="264.597" rx="6.28469" ry="6.02379" fill="black" fill-opacity="0.99"/>
<ellipse cx="1768.28" cy="249.538" rx="6.28469" ry="6.02379" fill="black" fill-opacity="0.99"/>
<ellipse cx="1768.28" cy="234.479" rx="6.28469" ry="6.02379" fill="black" fill-opacity="0.99"/>
<ellipse cx="1768.28" cy="219.419" rx="6.28469" ry="6.02379" fill="black" fill-opacity="0.99"/>
<ellipse cx="1768.28" cy="204.36" rx="6.28469" ry="6.02379" fill="black" fill-opacity="0.99"/>
<ellipse cx="1768.28" cy="189.3" rx="6.28469" ry="6.02379" fill="black" fill-opacity="0.99"/>
<ellipse cx="1768.28" cy="174.241" rx="6.28469" ry="6.02379" fill="black" fill-opacity="0.99"/>
<ellipse cx="1768.28" cy="159.181" rx="6.28469" ry="6.02379" fill="black" fill-opacity="0.99"/>
<ellipse cx="1768.28" cy="144.122" rx="6.28469" ry="6.02379" fill="black" fill-opacity="0.99"/>
<ellipse cx="1768.28" cy="129.062" rx="6.28469" ry="6.02379" fill="black" fill-opacity="0.99"/>
<ellipse cx="1768.28" cy="114.003" rx="6.28469" ry="6.02379" fill="black" fill-opacity="0.99"/>
<ellipse cx="1768.28" cy="98.9427" rx="6.28469" ry="6.02379" fill="black" fill-opacity="0.99"/>
<ellipse cx="1768.28" cy="83.8841" rx="6.28469" ry="6.02379" fill="black" fill-opacity="0.99"/>
<ellipse cx="1768.28" cy="68.8246" rx="6.28469" ry="6.02379" fill="black" fill-opacity="0.99"/>
<ellipse cx="1768.28" cy="53.765" rx="6.28469" ry="6.02379" fill="black" fill-opacity="0.99"/>
<ellipse cx="1768.28" cy="38.7059" rx="6.28469" ry="6.02379" fill="black" fill-opacity="0.99"/>
<ellipse cx="1768.28" cy="23.6459" rx="6.28469" ry="6.02379" fill="black" fill-opacity="0.99"/>
<ellipse cx="1768.28" cy="8.58726" rx="6.28469" ry="6.02379" fill="black" fill-opacity="0.99"/>
<ellipse cx="55.7066" cy="294.716" rx="6.28469" ry="6.02379" fill="black" fill-opacity="0.99"/>
<ellipse cx="55.7066" cy="279.657" rx="6.28469" ry="6.02379" fill="black" fill-opacity="0.99"/>
<ellipse cx="55.7066" cy="264.597" rx="6.28469" ry="6.02379" fill="black" fill-opacity="0.99"/>
<ellipse cx="55.7066" cy="249.538" rx="6.28469" ry="6.02379" fill="black" fill-opacity="0.99"/>
<ellipse cx="55.7066" cy="234.479" rx="6.28469" ry="6.02379" fill="black" fill-opacity="0.99"/>
<ellipse cx="55.7066" cy="219.419" rx="6.28469" ry="6.02379" fill="black" fill-opacity="0.99"/>
<ellipse cx="55.7066" cy="204.36" rx="6.28469" ry="6.02379" fill="black" fill-opacity="0.99"/>
<ellipse cx="55.7066" cy="189.3" rx="6.28469" ry="6.02379" fill="black" fill-opacity="0.99"/>
<ellipse cx="55.7066" cy="174.241" rx="6.28469" ry="6.02379" fill="black" fill-opacity="0.99"/>
<ellipse cx="55.7066" cy="159.181" rx="6.28469" ry="6.02379" fill="black" fill-opacity="0.99"/>
<ellipse cx="55.7066" cy="144.122" rx="6.28469" ry="6.02379" fill="black" fill-opacity="0.99"/>
<ellipse cx="55.7066" cy="129.062" rx="6.28469" ry="6.02379" fill="black" fill-opacity="0.99"/>
<ellipse cx="55.7066" cy="114.003" rx="6.28469" ry="6.02379" fill="black" fill-opacity="0.99"/>
<ellipse cx="55.7066" cy="98.9427" rx="6.28469" ry="6.02379" fill="black" fill-opacity="0.99"/>
<ellipse cx="55.7066" cy="83.8841" rx="6.28469" ry="6.02379" fill="black" fill-opacity="0.99"/>
<ellipse cx="55.7066" cy="68.8246" rx="6.28469" ry="6.02379" fill="black" fill-opacity="0.99"/>
<ellipse cx="55.7066" cy="53.765" rx="6.28469" ry="6.02379" fill="black" fill-opacity="0.99"/>
<ellipse cx="55.7066" cy="38.7059" rx="6.28469" ry="6.02379" fill="black" fill-opacity="0.99"/>
<ellipse cx="55.7066" cy="23.6459" rx="6.28469" ry="6.02379" fill="black" fill-opacity="0.99"/>
<ellipse cx="55.7066" cy="8.58726" rx="6.28469" ry="6.02379" fill="black" fill-opacity="0.99"/>
<ellipse cx="55.7066" cy="806.738" rx="6.28469" ry="6.02379" fill="black" fill-opacity="0.99"/>
<ellipse cx="55.7066" cy="821.798" rx="6.28469" ry="6.02379" fill="black" fill-opacity="0.99"/>
<ellipse cx="55.7066" cy="836.857" rx="6.28469" ry="6.02379" fill="black" fill-opacity="0.99"/>
<ellipse cx="55.7066" cy="791.678" rx="6.28469" ry="6.02379" fill="black" fill-opacity="0.99"/>
<ellipse cx="55.7066" cy="776.62" rx="6.28469" ry="6.02379" fill="black" fill-opacity="0.99"/>
<ellipse cx="55.7066" cy="761.56" rx="6.28469" ry="6.02379" fill="black" fill-opacity="0.99"/>
<ellipse cx="55.7066" cy="746.5" rx="6.28469" ry="6.02379" fill="black" fill-opacity="0.99"/>
<ellipse cx="55.7066" cy="731.441" rx="6.28469" ry="6.02379" fill="black" fill-opacity="0.99"/>
<ellipse cx="55.7066" cy="716.381" rx="6.28469" ry="6.02379" fill="black" fill-opacity="0.99"/>
<ellipse cx="55.7066" cy="701.322" rx="6.28469" ry="6.02379" fill="black" fill-opacity="0.99"/>
<ellipse cx="55.7066" cy="686.263" rx="6.28469" ry="6.02379" fill="black" fill-opacity="0.99"/>
<ellipse cx="55.7066" cy="671.203" rx="6.28469" ry="6.02379" fill="black" fill-opacity="0.99"/>
<ellipse cx="55.7066" cy="656.143" rx="6.28469" ry="6.02379" fill="black" fill-opacity="0.99"/>
<ellipse cx="55.7066" cy="641.084" rx="6.28469" ry="6.02379" fill="black" fill-opacity="0.99"/>
<ellipse cx="55.7066" cy="626.025" rx="6.28469" ry="6.02379" fill="black" fill-opacity="0.99"/>
<ellipse cx="55.7066" cy="610.965" rx="6.28469" ry="6.02379" fill="black" fill-opacity="0.99"/>
<ellipse cx="55.7066" cy="595.906" rx="6.28469" ry="6.02379" fill="black" fill-opacity="0.99"/>
<ellipse cx="55.7066" cy="580.847" rx="6.28469" ry="6.02379" fill="black" fill-opacity="0.99"/>
<ellipse cx="55.7066" cy="565.787" rx="6.28469" ry="6.02379" fill="black" fill-opacity="0.99"/>
<ellipse cx="55.7066" cy="550.727" rx="6.28469" ry="6.02379" fill="black" fill-opacity="0.99"/>
<ellipse cx="55.7066" cy="535.667" rx="6.28469" ry="6.02379" fill="black" fill-opacity="0.99"/>
<ellipse cx="55.7066" cy="520.609" rx="6.28469" ry="6.02379" fill="black" fill-opacity="0.99"/>
<ellipse cx="55.7066" cy="505.549" rx="6.28469" ry="6.02379" fill="black" fill-opacity="0.99"/>
<ellipse cx="55.7066" cy="490.49" rx="6.28469" ry="6.02379" fill="black" fill-opacity="0.99"/>
<ellipse cx="55.7066" cy="475.43" rx="6.28469" ry="6.02379" fill="black" fill-opacity="0.99"/>
<ellipse cx="55.7066" cy="460.37" rx="6.28469" ry="6.02379" fill="black" fill-opacity="0.99"/>
<ellipse cx="55.7066" cy="445.311" rx="6.28469" ry="6.02379" fill="black" fill-opacity="0.99"/>
<ellipse cx="55.7066" cy="430.251" rx="6.28469" ry="6.02379" fill="black" fill-opacity="0.99"/>
<ellipse cx="55.7066" cy="415.193" rx="6.28469" ry="6.02379" fill="black" fill-opacity="0.99"/>
<ellipse cx="55.7066" cy="400.133" rx="6.28469" ry="6.02379" fill="black" fill-opacity="0.99"/>
<ellipse cx="55.7066" cy="385.074" rx="6.28469" ry="6.02379" fill="black" fill-opacity="0.99"/>
<ellipse cx="55.7066" cy="370.014" rx="6.28469" ry="6.02379" fill="black" fill-opacity="0.99"/>
<ellipse cx="55.7066" cy="354.953" rx="6.28469" ry="6.02379" fill="black" fill-opacity="0.99"/>
<ellipse cx="55.7066" cy="339.895" rx="6.28469" ry="6.02379" fill="black" fill-opacity="0.99"/>
<ellipse cx="55.7066" cy="324.836" rx="6.28469" ry="6.02379" fill="black" fill-opacity="0.99"/>
<ellipse cx="55.7066" cy="309.776" rx="6.28469" ry="6.02379" fill="black" fill-opacity="0.99"/>
<ellipse cx="1736.86" cy="294.716" rx="6.28469" ry="6.02379" fill="black" fill-opacity="0.99"/>
<ellipse cx="1736.86" cy="279.657" rx="6.28469" ry="6.02379" fill="black" fill-opacity="0.99"/>
<ellipse cx="1736.86" cy="264.597" rx="6.28469" ry="6.02379" fill="black" fill-opacity="0.99"/>
<ellipse cx="1736.86" cy="249.538" rx="6.28469" ry="6.02379" fill="black" fill-opacity="0.99"/>
<ellipse cx="1736.86" cy="234.479" rx="6.28469" ry="6.02379" fill="black" fill-opacity="0.99"/>
<ellipse cx="1736.86" cy="219.419" rx="6.28469" ry="6.02379" fill="black" fill-opacity="0.99"/>
<ellipse cx="1736.86" cy="204.36" rx="6.28469" ry="6.02379" fill="black" fill-opacity="0.99"/>
<ellipse cx="1736.86" cy="189.3" rx="6.28469" ry="6.02379" fill="black" fill-opacity="0.99"/>
<ellipse cx="1736.86" cy="174.241" rx="6.28469" ry="6.02379" fill="black" fill-opacity="0.99"/>
<ellipse cx="1736.86" cy="159.181" rx="6.28469" ry="6.02379" fill="black" fill-opacity="0.99"/>
<ellipse cx="1736.86" cy="144.122" rx="6.28469" ry="6.02379" fill="black" fill-opacity="0.99"/>
<ellipse cx="1736.86" cy="129.062" rx="6.28469" ry="6.02379" fill="black" fill-opacity="0.99"/>
<ellipse cx="1736.86" cy="114.003" rx="6.28469" ry="6.02379" fill="black" fill-opacity="0.99"/>
<ellipse cx="1736.86" cy="98.9427" rx="6.28469" ry="6.02379" fill="black" fill-opacity="0.99"/>
<ellipse cx="1736.86" cy="83.8841" rx="6.28469" ry="6.02379" fill="black" fill-opacity="0.99"/>
<ellipse cx="1736.86" cy="68.8246" rx="6.28469" ry="6.02379" fill="black" fill-opacity="0.99"/>
<ellipse cx="1736.86" cy="53.765" rx="6.28469" ry="6.02379" fill="black" fill-opacity="0.99"/>
<ellipse cx="1736.86" cy="38.7059" rx="6.28469" ry="6.02379" fill="black" fill-opacity="0.99"/>
<ellipse cx="1736.86" cy="23.6459" rx="6.28469" ry="6.02379" fill="black" fill-opacity="0.99"/>
<ellipse cx="1736.86" cy="8.58726" rx="6.28469" ry="6.02379" fill="black" fill-opacity="0.99"/>
<ellipse cx="1736.86" cy="656.143" rx="6.28469" ry="6.02379" fill="black" fill-opacity="0.99"/>
<ellipse cx="1736.86" cy="641.084" rx="6.28469" ry="6.02379" fill="black" fill-opacity="0.99"/>
<ellipse cx="1736.86" cy="626.025" rx="6.28469" ry="6.02379" fill="black" fill-opacity="0.99"/>
<ellipse cx="1736.86" cy="610.965" rx="6.28469" ry="6.02379" fill="black" fill-opacity="0.99"/>
<ellipse cx="1736.86" cy="595.906" rx="6.28469" ry="6.02379" fill="black" fill-opacity="0.99"/>
<ellipse cx="1736.86" cy="731.441" rx="6.28469" ry="6.02379" fill="black" fill-opacity="0.99"/>
<ellipse cx="1736.86" cy="716.381" rx="6.28469" ry="6.02379" fill="black" fill-opacity="0.99"/>
<ellipse cx="1736.86" cy="701.322" rx="6.28469" ry="6.02379" fill="black" fill-opacity="0.99"/>
<ellipse cx="1736.86" cy="686.263" rx="6.28469" ry="6.02379" fill="black" fill-opacity="0.99"/>
<ellipse cx="1736.86" cy="671.203" rx="6.28469" ry="6.02379" fill="black" fill-opacity="0.99"/>
<ellipse cx="1736.86" cy="806.738" rx="6.28469" ry="6.02379" fill="black" fill-opacity="0.99"/>
<ellipse cx="1736.86" cy="791.678" rx="6.28469" ry="6.02379" fill="black" fill-opacity="0.99"/>
<ellipse cx="1736.86" cy="776.62" rx="6.28469" ry="6.02379" fill="black" fill-opacity="0.99"/>
<ellipse cx="1736.86" cy="761.56" rx="6.28469" ry="6.02379" fill="black" fill-opacity="0.99"/>
<ellipse cx="1736.86" cy="746.5" rx="6.28469" ry="6.02379" fill="black" fill-opacity="0.99"/>
<ellipse cx="1736.86" cy="580.847" rx="6.28469" ry="6.02379" fill="black" fill-opacity="0.99"/>
<ellipse cx="1736.86" cy="565.787" rx="6.28469" ry="6.02379" fill="black" fill-opacity="0.99"/>
<ellipse cx="1736.86" cy="550.727" rx="6.28469" ry="6.02379" fill="black" fill-opacity="0.99"/>
<ellipse cx="1736.86" cy="535.667" rx="6.28469" ry="6.02379" fill="black" fill-opacity="0.99"/>
<ellipse cx="1736.86" cy="520.609" rx="6.28469" ry="6.02379" fill="black" fill-opacity="0.99"/>
<ellipse cx="1736.86" cy="505.549" rx="6.28469" ry="6.02379" fill="black" fill-opacity="0.99"/>
<ellipse cx="1736.86" cy="490.49" rx="6.28469" ry="6.02379" fill="black" fill-opacity="0.99"/>
<ellipse cx="1736.86" cy="475.43" rx="6.28469" ry="6.02379" fill="black" fill-opacity="0.99"/>
<ellipse cx="1736.86" cy="460.37" rx="6.28469" ry="6.02379" fill="black" fill-opacity="0.99"/>
<ellipse cx="1736.86" cy="445.311" rx="6.28469" ry="6.02379" fill="black" fill-opacity="0.99"/>
<ellipse cx="1736.86" cy="430.251" rx="6.28469" ry="6.02379" fill="black" fill-opacity="0.99"/>
<ellipse cx="1736.86" cy="415.193" rx="6.28469" ry="6.02379" fill="black" fill-opacity="0.99"/>
<ellipse cx="1736.86" cy="400.133" rx="6.28469" ry="6.02379" fill="black" fill-opacity="0.99"/>
<ellipse cx="1736.86" cy="385.074" rx="6.28469" ry="6.02379" fill="black" fill-opacity="0.99"/>
<ellipse cx="1736.86" cy="370.014" rx="6.28469" ry="6.02379" fill="black" fill-opacity="0.99"/>
<ellipse cx="1736.86" cy="354.953" rx="6.28469" ry="6.02379" fill="black" fill-opacity="0.99"/>
<ellipse cx="1736.86" cy="339.895" rx="6.28469" ry="6.02379" fill="black" fill-opacity="0.99"/>
<ellipse cx="1736.86" cy="324.836" rx="6.28469" ry="6.02379" fill="black" fill-opacity="0.99"/>
<ellipse cx="1736.86" cy="309.776" rx="6.28469" ry="6.02379" fill="black" fill-opacity="0.99"/>
</g>
<defs>
<clipPath id="clip0_115_5007">
<rect width="1791" height="884" fill="white"/>
</clipPath>
</defs>
</svg>
