<svg width="1791" height="539" viewBox="0 0 1791 539" fill="none" xmlns="http://www.w3.org/2000/svg">
<g clip-path="url(#clip0_117_6246)">
<rect width="1791" height="539" fill="#D8C6BA"/>
<path d="M39.9961 504.41V-2490.92H1752.57V504.41H39.9961Z" stroke="black" stroke-opacity="0.99" stroke-width="4"/>
<ellipse cx="24.2847" cy="8.95347" rx="6.28469" ry="6.02379" fill="black" fill-opacity="0.99"/>
<ellipse cx="24.2847" cy="24.0135" rx="6.28469" ry="6.02379" fill="black" fill-opacity="0.99"/>
<ellipse cx="24.2847" cy="39.0736" rx="6.28469" ry="6.02379" fill="black" fill-opacity="0.99"/>
<ellipse cx="24.2847" cy="54.1327" rx="6.28469" ry="6.02379" fill="black" fill-opacity="0.99"/>
<ellipse cx="24.2847" cy="69.1927" rx="6.28469" ry="6.02379" fill="black" fill-opacity="0.99"/>
<ellipse cx="24.2847" cy="84.2513" rx="6.28469" ry="6.02379" fill="black" fill-opacity="0.99"/>
<ellipse cx="24.2847" cy="99.3109" rx="6.28469" ry="6.02379" fill="black" fill-opacity="0.99"/>
<ellipse cx="24.2847" cy="114.37" rx="6.28469" ry="6.02379" fill="black" fill-opacity="0.99"/>
<ellipse cx="24.2847" cy="129.43" rx="6.28469" ry="6.02379" fill="black" fill-opacity="0.99"/>
<ellipse cx="24.2847" cy="144.49" rx="6.28469" ry="6.02379" fill="black" fill-opacity="0.99"/>
<ellipse cx="24.2847" cy="159.549" rx="6.28469" ry="6.02379" fill="black" fill-opacity="0.99"/>
<ellipse cx="24.2847" cy="174.609" rx="6.28469" ry="6.02379" fill="black" fill-opacity="0.99"/>
<ellipse cx="24.2847" cy="189.667" rx="6.28469" ry="6.02379" fill="black" fill-opacity="0.99"/>
<ellipse cx="24.2847" cy="204.727" rx="6.28469" ry="6.02379" fill="black" fill-opacity="0.99"/>
<ellipse cx="24.2847" cy="219.787" rx="6.28469" ry="6.02379" fill="black" fill-opacity="0.99"/>
<ellipse cx="24.2847" cy="234.847" rx="6.28469" ry="6.02379" fill="black" fill-opacity="0.99"/>
<ellipse cx="24.2847" cy="249.906" rx="6.28469" ry="6.02379" fill="black" fill-opacity="0.99"/>
<ellipse cx="24.2847" cy="264.965" rx="6.28469" ry="6.02379" fill="black" fill-opacity="0.99"/>
<ellipse cx="24.2847" cy="280.025" rx="6.28469" ry="6.02379" fill="black" fill-opacity="0.99"/>
<ellipse cx="24.2847" cy="295.084" rx="6.28469" ry="6.02379" fill="black" fill-opacity="0.99"/>
<ellipse cx="24.2847" cy="310.143" rx="6.28469" ry="6.02379" fill="black" fill-opacity="0.99"/>
<ellipse cx="24.2847" cy="325.202" rx="6.28469" ry="6.02379" fill="black" fill-opacity="0.99"/>
<ellipse cx="24.2847" cy="340.263" rx="6.28469" ry="6.02379" fill="black" fill-opacity="0.99"/>
<ellipse cx="24.2847" cy="355.322" rx="6.28469" ry="6.02379" fill="black" fill-opacity="0.99"/>
<ellipse cx="24.2847" cy="370.381" rx="6.28469" ry="6.02379" fill="black" fill-opacity="0.99"/>
<ellipse cx="24.2847" cy="385.441" rx="6.28469" ry="6.02379" fill="black" fill-opacity="0.99"/>
<ellipse cx="24.2847" cy="400.5" rx="6.28469" ry="6.02379" fill="black" fill-opacity="0.99"/>
<ellipse cx="24.2847" cy="415.56" rx="6.28469" ry="6.02379" fill="black" fill-opacity="0.99"/>
<ellipse cx="24.2847" cy="430.619" rx="6.28469" ry="6.02379" fill="black" fill-opacity="0.99"/>
<ellipse cx="24.2847" cy="445.678" rx="6.28469" ry="6.02379" fill="black" fill-opacity="0.99"/>
<ellipse cx="24.2847" cy="460.738" rx="6.28469" ry="6.02379" fill="black" fill-opacity="0.99"/>
<ellipse cx="24.2847" cy="475.798" rx="6.28469" ry="6.02379" fill="black" fill-opacity="0.99"/>
<ellipse cx="24.2847" cy="490.857" rx="6.28469" ry="6.02379" fill="black" fill-opacity="0.99"/>
<ellipse cx="24.2847" cy="505.916" rx="6.28469" ry="6.02379" fill="black" fill-opacity="0.99"/>
<ellipse cx="24.2847" cy="520.976" rx="6.28469" ry="6.02379" fill="black" fill-opacity="0.99"/>
<ellipse cx="39.9956" cy="520.976" rx="6.28469" ry="6.02379" fill="black" fill-opacity="0.99"/>
<ellipse cx="55.7066" cy="520.976" rx="6.28469" ry="6.02379" fill="black" fill-opacity="0.99"/>
<ellipse cx="71.4194" cy="520.976" rx="6.28469" ry="6.02379" fill="black" fill-opacity="0.99"/>
<ellipse cx="87.1323" cy="520.976" rx="6.28469" ry="6.02379" fill="black" fill-opacity="0.99"/>
<ellipse cx="102.843" cy="520.976" rx="6.28469" ry="6.02379" fill="black" fill-opacity="0.99"/>
<ellipse cx="118.554" cy="520.976" rx="6.28469" ry="6.02379" fill="black" fill-opacity="0.99"/>
<ellipse cx="134.265" cy="520.976" rx="6.28469" ry="6.02379" fill="black" fill-opacity="0.99"/>
<ellipse cx="149.978" cy="520.976" rx="6.28469" ry="6.02379" fill="black" fill-opacity="0.99"/>
<ellipse cx="165.691" cy="520.976" rx="6.28469" ry="6.02379" fill="black" fill-opacity="0.99"/>
<ellipse cx="181.404" cy="520.976" rx="6.28469" ry="6.02379" fill="black" fill-opacity="0.99"/>
<ellipse cx="197.113" cy="520.976" rx="6.28469" ry="6.02379" fill="black" fill-opacity="0.99"/>
<ellipse cx="212.828" cy="520.976" rx="6.28469" ry="6.02379" fill="black" fill-opacity="0.99"/>
<ellipse cx="228.539" cy="520.976" rx="6.28469" ry="6.02379" fill="black" fill-opacity="0.99"/>
<ellipse cx="244.25" cy="520.976" rx="6.28469" ry="6.02379" fill="black" fill-opacity="0.99"/>
<ellipse cx="259.96" cy="520.976" rx="6.28469" ry="6.02379" fill="black" fill-opacity="0.99"/>
<ellipse cx="275.671" cy="520.976" rx="6.28469" ry="6.02379" fill="black" fill-opacity="0.99"/>
<ellipse cx="291.382" cy="520.976" rx="6.28469" ry="6.02379" fill="black" fill-opacity="0.99"/>
<ellipse cx="307.095" cy="520.976" rx="6.28469" ry="6.02379" fill="black" fill-opacity="0.99"/>
<ellipse cx="322.808" cy="520.976" rx="6.28469" ry="6.02379" fill="black" fill-opacity="0.99"/>
<ellipse cx="338.519" cy="520.976" rx="6.28469" ry="6.02379" fill="black" fill-opacity="0.99"/>
<ellipse cx="354.23" cy="520.976" rx="6.28469" ry="6.02379" fill="black" fill-opacity="0.99"/>
<ellipse cx="369.943" cy="520.976" rx="6.28469" ry="6.02379" fill="black" fill-opacity="0.99"/>
<ellipse cx="385.652" cy="520.976" rx="6.28469" ry="6.02379" fill="black" fill-opacity="0.99"/>
<ellipse cx="401.365" cy="520.976" rx="6.28469" ry="6.02379" fill="black" fill-opacity="0.99"/>
<ellipse cx="417.078" cy="520.976" rx="6.28469" ry="6.02379" fill="black" fill-opacity="0.99"/>
<ellipse cx="432.789" cy="520.976" rx="6.28469" ry="6.02379" fill="black" fill-opacity="0.99"/>
<ellipse cx="448.501" cy="520.976" rx="6.28469" ry="6.02379" fill="black" fill-opacity="0.99"/>
<ellipse cx="464.214" cy="520.976" rx="6.28469" ry="6.02379" fill="black" fill-opacity="0.99"/>
<ellipse cx="479.925" cy="520.976" rx="6.28469" ry="6.02379" fill="black" fill-opacity="0.99"/>
<ellipse cx="495.636" cy="520.976" rx="6.28469" ry="6.02379" fill="black" fill-opacity="0.99"/>
<ellipse cx="511.349" cy="520.976" rx="6.28469" ry="6.02379" fill="black" fill-opacity="0.99"/>
<ellipse cx="527.058" cy="520.976" rx="6.28469" ry="6.02379" fill="black" fill-opacity="0.99"/>
<ellipse cx="542.773" cy="520.976" rx="6.28469" ry="6.02379" fill="black" fill-opacity="0.99"/>
<ellipse cx="558.482" cy="520.976" rx="6.28469" ry="6.02379" fill="black" fill-opacity="0.99"/>
<ellipse cx="574.195" cy="520.976" rx="6.28469" ry="6.02379" fill="black" fill-opacity="0.99"/>
<ellipse cx="589.906" cy="520.976" rx="6.28469" ry="6.02379" fill="black" fill-opacity="0.99"/>
<ellipse cx="605.619" cy="520.976" rx="6.28469" ry="6.02379" fill="black" fill-opacity="0.99"/>
<ellipse cx="621.33" cy="520.976" rx="6.28469" ry="6.02379" fill="black" fill-opacity="0.99"/>
<ellipse cx="637.042" cy="520.976" rx="6.28469" ry="6.02379" fill="black" fill-opacity="0.99"/>
<ellipse cx="652.753" cy="520.976" rx="6.28469" ry="6.02379" fill="black" fill-opacity="0.99"/>
<ellipse cx="668.464" cy="520.976" rx="6.28469" ry="6.02379" fill="black" fill-opacity="0.99"/>
<ellipse cx="684.175" cy="520.976" rx="6.28469" ry="6.02379" fill="black" fill-opacity="0.99"/>
<ellipse cx="699.886" cy="520.976" rx="6.28469" ry="6.02379" fill="black" fill-opacity="0.99"/>
<ellipse cx="715.597" cy="520.976" rx="6.28469" ry="6.02379" fill="black" fill-opacity="0.99"/>
<ellipse cx="731.312" cy="520.976" rx="6.28469" ry="6.02379" fill="black" fill-opacity="0.99"/>
<ellipse cx="747.023" cy="520.976" rx="6.28469" ry="6.02379" fill="black" fill-opacity="0.99"/>
<ellipse cx="762.734" cy="520.976" rx="6.28469" ry="6.02379" fill="black" fill-opacity="0.99"/>
<ellipse cx="778.449" cy="520.976" rx="6.28469" ry="6.02379" fill="black" fill-opacity="0.99"/>
<ellipse cx="794.158" cy="520.976" rx="6.28469" ry="6.02379" fill="black" fill-opacity="0.99"/>
<ellipse cx="762.734" cy="490.857" rx="6.28469" ry="6.02379" fill="black" fill-opacity="0.99"/>
<ellipse cx="778.449" cy="490.857" rx="6.28469" ry="6.02379" fill="black" fill-opacity="0.99"/>
<ellipse cx="794.158" cy="490.857" rx="6.28469" ry="6.02379" fill="black" fill-opacity="0.99"/>
<ellipse cx="809.871" cy="490.857" rx="6.28469" ry="6.02379" fill="black" fill-opacity="0.99"/>
<ellipse cx="825.582" cy="490.857" rx="6.28469" ry="6.02379" fill="black" fill-opacity="0.99"/>
<ellipse cx="841.292" cy="490.857" rx="6.28469" ry="6.02379" fill="black" fill-opacity="0.99"/>
<ellipse cx="857.003" cy="490.857" rx="6.28469" ry="6.02379" fill="black" fill-opacity="0.99"/>
<ellipse cx="872.718" cy="490.857" rx="6.28469" ry="6.02379" fill="black" fill-opacity="0.99"/>
<ellipse cx="888.427" cy="490.857" rx="6.28469" ry="6.02379" fill="black" fill-opacity="0.99"/>
<ellipse cx="904.14" cy="490.857" rx="6.28469" ry="6.02379" fill="black" fill-opacity="0.99"/>
<ellipse cx="919.851" cy="490.857" rx="6.28469" ry="6.02379" fill="black" fill-opacity="0.99"/>
<ellipse cx="935.564" cy="490.857" rx="6.28469" ry="6.02379" fill="black" fill-opacity="0.99"/>
<ellipse cx="951.275" cy="490.857" rx="6.28469" ry="6.02379" fill="black" fill-opacity="0.99"/>
<ellipse cx="966.988" cy="490.857" rx="6.28469" ry="6.02379" fill="black" fill-opacity="0.99"/>
<ellipse cx="982.699" cy="490.857" rx="6.28469" ry="6.02379" fill="black" fill-opacity="0.99"/>
<ellipse cx="998.41" cy="490.857" rx="6.28469" ry="6.02379" fill="black" fill-opacity="0.99"/>
<ellipse cx="1014.12" cy="490.857" rx="6.28469" ry="6.02379" fill="black" fill-opacity="0.99"/>
<ellipse cx="1029.84" cy="490.857" rx="6.28469" ry="6.02379" fill="black" fill-opacity="0.99"/>
<ellipse cx="1045.55" cy="490.857" rx="6.28469" ry="6.02379" fill="black" fill-opacity="0.99"/>
<ellipse cx="1061.26" cy="490.857" rx="6.28469" ry="6.02379" fill="black" fill-opacity="0.99"/>
<ellipse cx="1076.97" cy="490.857" rx="6.28469" ry="6.02379" fill="black" fill-opacity="0.99"/>
<ellipse cx="1092.68" cy="490.857" rx="6.28469" ry="6.02379" fill="black" fill-opacity="0.99"/>
<ellipse cx="1108.39" cy="490.857" rx="6.28469" ry="6.02379" fill="black" fill-opacity="0.99"/>
<ellipse cx="1124.1" cy="490.857" rx="6.28469" ry="6.02379" fill="black" fill-opacity="0.99"/>
<ellipse cx="1139.82" cy="490.857" rx="6.28469" ry="6.02379" fill="black" fill-opacity="0.99"/>
<ellipse cx="1155.53" cy="490.857" rx="6.28469" ry="6.02379" fill="black" fill-opacity="0.99"/>
<ellipse cx="1171.24" cy="490.857" rx="6.28469" ry="6.02379" fill="black" fill-opacity="0.99"/>
<ellipse cx="1186.95" cy="490.857" rx="6.28469" ry="6.02379" fill="black" fill-opacity="0.99"/>
<ellipse cx="1202.66" cy="490.857" rx="6.28469" ry="6.02379" fill="black" fill-opacity="0.99"/>
<ellipse cx="1218.37" cy="490.857" rx="6.28469" ry="6.02379" fill="black" fill-opacity="0.99"/>
<ellipse cx="1234.09" cy="490.857" rx="6.28469" ry="6.02379" fill="black" fill-opacity="0.99"/>
<ellipse cx="1249.8" cy="490.857" rx="6.28469" ry="6.02379" fill="black" fill-opacity="0.99"/>
<ellipse cx="1265.51" cy="490.857" rx="6.28469" ry="6.02379" fill="black" fill-opacity="0.99"/>
<ellipse cx="1281.22" cy="490.857" rx="6.28469" ry="6.02379" fill="black" fill-opacity="0.99"/>
<ellipse cx="1296.94" cy="490.857" rx="6.28469" ry="6.02379" fill="black" fill-opacity="0.99"/>
<ellipse cx="1312.64" cy="490.857" rx="6.28469" ry="6.02379" fill="black" fill-opacity="0.99"/>
<ellipse cx="1328.36" cy="490.857" rx="6.28469" ry="6.02379" fill="black" fill-opacity="0.99"/>
<ellipse cx="1344.07" cy="490.857" rx="6.28469" ry="6.02379" fill="black" fill-opacity="0.99"/>
<ellipse cx="1359.78" cy="490.857" rx="6.28469" ry="6.02379" fill="black" fill-opacity="0.99"/>
<ellipse cx="1375.49" cy="490.857" rx="6.28469" ry="6.02379" fill="black" fill-opacity="0.99"/>
<ellipse cx="1391.21" cy="490.857" rx="6.28469" ry="6.02379" fill="black" fill-opacity="0.99"/>
<ellipse cx="1406.92" cy="490.857" rx="6.28469" ry="6.02379" fill="black" fill-opacity="0.99"/>
<ellipse cx="1422.63" cy="490.857" rx="6.28469" ry="6.02379" fill="black" fill-opacity="0.99"/>
<ellipse cx="1438.34" cy="490.857" rx="6.28469" ry="6.02379" fill="black" fill-opacity="0.99"/>
<ellipse cx="71.4194" cy="490.857" rx="6.28469" ry="6.02379" fill="black" fill-opacity="0.99"/>
<ellipse cx="87.1323" cy="490.857" rx="6.28469" ry="6.02379" fill="black" fill-opacity="0.99"/>
<ellipse cx="102.843" cy="490.857" rx="6.28469" ry="6.02379" fill="black" fill-opacity="0.99"/>
<ellipse cx="118.554" cy="490.857" rx="6.28469" ry="6.02379" fill="black" fill-opacity="0.99"/>
<ellipse cx="134.265" cy="490.857" rx="6.28469" ry="6.02379" fill="black" fill-opacity="0.99"/>
<ellipse cx="149.978" cy="490.857" rx="6.28469" ry="6.02379" fill="black" fill-opacity="0.99"/>
<ellipse cx="165.691" cy="490.857" rx="6.28469" ry="6.02379" fill="black" fill-opacity="0.99"/>
<ellipse cx="181.404" cy="490.857" rx="6.28469" ry="6.02379" fill="black" fill-opacity="0.99"/>
<ellipse cx="197.113" cy="490.857" rx="6.28469" ry="6.02379" fill="black" fill-opacity="0.99"/>
<ellipse cx="212.828" cy="490.857" rx="6.28469" ry="6.02379" fill="black" fill-opacity="0.99"/>
<ellipse cx="228.539" cy="490.857" rx="6.28469" ry="6.02379" fill="black" fill-opacity="0.99"/>
<ellipse cx="244.25" cy="490.857" rx="6.28469" ry="6.02379" fill="black" fill-opacity="0.99"/>
<ellipse cx="259.96" cy="490.857" rx="6.28469" ry="6.02379" fill="black" fill-opacity="0.99"/>
<ellipse cx="275.671" cy="490.857" rx="6.28469" ry="6.02379" fill="black" fill-opacity="0.99"/>
<ellipse cx="291.382" cy="490.857" rx="6.28469" ry="6.02379" fill="black" fill-opacity="0.99"/>
<ellipse cx="307.095" cy="490.857" rx="6.28469" ry="6.02379" fill="black" fill-opacity="0.99"/>
<ellipse cx="322.808" cy="490.857" rx="6.28469" ry="6.02379" fill="black" fill-opacity="0.99"/>
<ellipse cx="338.519" cy="490.857" rx="6.28469" ry="6.02379" fill="black" fill-opacity="0.99"/>
<ellipse cx="354.23" cy="490.857" rx="6.28469" ry="6.02379" fill="black" fill-opacity="0.99"/>
<ellipse cx="369.943" cy="490.857" rx="6.28469" ry="6.02379" fill="black" fill-opacity="0.99"/>
<ellipse cx="385.652" cy="490.857" rx="6.28469" ry="6.02379" fill="black" fill-opacity="0.99"/>
<ellipse cx="401.365" cy="490.857" rx="6.28469" ry="6.02379" fill="black" fill-opacity="0.99"/>
<ellipse cx="417.078" cy="490.857" rx="6.28469" ry="6.02379" fill="black" fill-opacity="0.99"/>
<ellipse cx="432.789" cy="490.857" rx="6.28469" ry="6.02379" fill="black" fill-opacity="0.99"/>
<ellipse cx="448.501" cy="490.857" rx="6.28469" ry="6.02379" fill="black" fill-opacity="0.99"/>
<ellipse cx="464.214" cy="490.857" rx="6.28469" ry="6.02379" fill="black" fill-opacity="0.99"/>
<ellipse cx="479.925" cy="490.857" rx="6.28469" ry="6.02379" fill="black" fill-opacity="0.99"/>
<ellipse cx="495.636" cy="490.857" rx="6.28469" ry="6.02379" fill="black" fill-opacity="0.99"/>
<ellipse cx="511.349" cy="490.857" rx="6.28469" ry="6.02379" fill="black" fill-opacity="0.99"/>
<ellipse cx="527.058" cy="490.857" rx="6.28469" ry="6.02379" fill="black" fill-opacity="0.99"/>
<ellipse cx="542.773" cy="490.857" rx="6.28469" ry="6.02379" fill="black" fill-opacity="0.99"/>
<ellipse cx="558.482" cy="490.857" rx="6.28469" ry="6.02379" fill="black" fill-opacity="0.99"/>
<ellipse cx="574.195" cy="490.857" rx="6.28469" ry="6.02379" fill="black" fill-opacity="0.99"/>
<ellipse cx="589.906" cy="490.857" rx="6.28469" ry="6.02379" fill="black" fill-opacity="0.99"/>
<ellipse cx="605.619" cy="490.857" rx="6.28469" ry="6.02379" fill="black" fill-opacity="0.99"/>
<ellipse cx="621.33" cy="490.857" rx="6.28469" ry="6.02379" fill="black" fill-opacity="0.99"/>
<ellipse cx="637.042" cy="490.857" rx="6.28469" ry="6.02379" fill="black" fill-opacity="0.99"/>
<ellipse cx="652.753" cy="490.857" rx="6.28469" ry="6.02379" fill="black" fill-opacity="0.99"/>
<ellipse cx="668.464" cy="490.857" rx="6.28469" ry="6.02379" fill="black" fill-opacity="0.99"/>
<ellipse cx="684.175" cy="490.857" rx="6.28469" ry="6.02379" fill="black" fill-opacity="0.99"/>
<ellipse cx="699.886" cy="490.857" rx="6.28469" ry="6.02379" fill="black" fill-opacity="0.99"/>
<ellipse cx="715.597" cy="490.857" rx="6.28469" ry="6.02379" fill="black" fill-opacity="0.99"/>
<ellipse cx="731.312" cy="490.857" rx="6.28469" ry="6.02379" fill="black" fill-opacity="0.99"/>
<ellipse cx="747.023" cy="490.857" rx="6.28469" ry="6.02379" fill="black" fill-opacity="0.99"/>
<ellipse cx="809.871" cy="520.976" rx="6.28469" ry="6.02379" fill="black" fill-opacity="0.99"/>
<ellipse cx="825.582" cy="520.976" rx="6.28469" ry="6.02379" fill="black" fill-opacity="0.99"/>
<ellipse cx="841.292" cy="520.976" rx="6.28469" ry="6.02379" fill="black" fill-opacity="0.99"/>
<ellipse cx="857.003" cy="520.976" rx="6.28469" ry="6.02379" fill="black" fill-opacity="0.99"/>
<ellipse cx="872.718" cy="520.976" rx="6.28469" ry="6.02379" fill="black" fill-opacity="0.99"/>
<ellipse cx="888.427" cy="520.976" rx="6.28469" ry="6.02379" fill="black" fill-opacity="0.99"/>
<ellipse cx="904.14" cy="520.976" rx="6.28469" ry="6.02379" fill="black" fill-opacity="0.99"/>
<ellipse cx="919.851" cy="520.976" rx="6.28469" ry="6.02379" fill="black" fill-opacity="0.99"/>
<ellipse cx="935.564" cy="520.976" rx="6.28469" ry="6.02379" fill="black" fill-opacity="0.99"/>
<ellipse cx="951.275" cy="520.976" rx="6.28469" ry="6.02379" fill="black" fill-opacity="0.99"/>
<ellipse cx="966.988" cy="520.976" rx="6.28469" ry="6.02379" fill="black" fill-opacity="0.99"/>
<ellipse cx="982.699" cy="520.976" rx="6.28469" ry="6.02379" fill="black" fill-opacity="0.99"/>
<ellipse cx="998.41" cy="520.976" rx="6.28469" ry="6.02379" fill="black" fill-opacity="0.99"/>
<ellipse cx="1014.12" cy="520.976" rx="6.28469" ry="6.02379" fill="black" fill-opacity="0.99"/>
<ellipse cx="1029.84" cy="520.976" rx="6.28469" ry="6.02379" fill="black" fill-opacity="0.99"/>
<ellipse cx="1045.55" cy="520.976" rx="6.28469" ry="6.02379" fill="black" fill-opacity="0.99"/>
<ellipse cx="1061.26" cy="520.976" rx="6.28469" ry="6.02379" fill="black" fill-opacity="0.99"/>
<ellipse cx="1076.97" cy="520.976" rx="6.28469" ry="6.02379" fill="black" fill-opacity="0.99"/>
<ellipse cx="1092.68" cy="520.976" rx="6.28469" ry="6.02379" fill="black" fill-opacity="0.99"/>
<ellipse cx="1108.39" cy="520.976" rx="6.28469" ry="6.02379" fill="black" fill-opacity="0.99"/>
<ellipse cx="1124.1" cy="520.976" rx="6.28469" ry="6.02379" fill="black" fill-opacity="0.99"/>
<ellipse cx="1139.82" cy="520.976" rx="6.28469" ry="6.02379" fill="black" fill-opacity="0.99"/>
<ellipse cx="1155.53" cy="520.976" rx="6.28469" ry="6.02379" fill="black" fill-opacity="0.99"/>
<ellipse cx="1171.24" cy="520.976" rx="6.28469" ry="6.02379" fill="black" fill-opacity="0.99"/>
<ellipse cx="1186.95" cy="520.976" rx="6.28469" ry="6.02379" fill="black" fill-opacity="0.99"/>
<ellipse cx="1202.66" cy="520.976" rx="6.28469" ry="6.02379" fill="black" fill-opacity="0.99"/>
<ellipse cx="1218.37" cy="520.976" rx="6.28469" ry="6.02379" fill="black" fill-opacity="0.99"/>
<ellipse cx="1234.09" cy="520.976" rx="6.28469" ry="6.02379" fill="black" fill-opacity="0.99"/>
<ellipse cx="1249.8" cy="520.976" rx="6.28469" ry="6.02379" fill="black" fill-opacity="0.99"/>
<ellipse cx="1265.51" cy="520.976" rx="6.28469" ry="6.02379" fill="black" fill-opacity="0.99"/>
<ellipse cx="1281.22" cy="520.976" rx="6.28469" ry="6.02379" fill="black" fill-opacity="0.99"/>
<ellipse cx="1296.94" cy="520.976" rx="6.28469" ry="6.02379" fill="black" fill-opacity="0.99"/>
<ellipse cx="1312.64" cy="520.976" rx="6.28469" ry="6.02379" fill="black" fill-opacity="0.99"/>
<ellipse cx="1328.36" cy="520.976" rx="6.28469" ry="6.02379" fill="black" fill-opacity="0.99"/>
<ellipse cx="1344.07" cy="520.976" rx="6.28469" ry="6.02379" fill="black" fill-opacity="0.99"/>
<ellipse cx="1359.78" cy="520.976" rx="6.28469" ry="6.02379" fill="black" fill-opacity="0.99"/>
<ellipse cx="1375.49" cy="520.976" rx="6.28469" ry="6.02379" fill="black" fill-opacity="0.99"/>
<ellipse cx="1391.21" cy="520.976" rx="6.28469" ry="6.02379" fill="black" fill-opacity="0.99"/>
<ellipse cx="1406.92" cy="520.976" rx="6.28469" ry="6.02379" fill="black" fill-opacity="0.99"/>
<ellipse cx="1422.63" cy="520.976" rx="6.28469" ry="6.02379" fill="black" fill-opacity="0.99"/>
<ellipse cx="1438.34" cy="520.976" rx="6.28469" ry="6.02379" fill="black" fill-opacity="0.99"/>
<ellipse cx="1454.05" cy="520.976" rx="6.28469" ry="6.02379" fill="black" fill-opacity="0.99"/>
<ellipse cx="1469.76" cy="520.976" rx="6.28469" ry="6.02379" fill="black" fill-opacity="0.99"/>
<ellipse cx="1485.47" cy="520.976" rx="6.28469" ry="6.02379" fill="black" fill-opacity="0.99"/>
<ellipse cx="1501.19" cy="520.976" rx="6.28469" ry="6.02379" fill="black" fill-opacity="0.99"/>
<ellipse cx="1516.9" cy="520.976" rx="6.28469" ry="6.02379" fill="black" fill-opacity="0.99"/>
<ellipse cx="1532.61" cy="520.976" rx="6.28469" ry="6.02379" fill="black" fill-opacity="0.99"/>
<ellipse cx="1548.32" cy="520.976" rx="6.28469" ry="6.02379" fill="black" fill-opacity="0.99"/>
<ellipse cx="1564.03" cy="520.976" rx="6.28469" ry="6.02379" fill="black" fill-opacity="0.99"/>
<ellipse cx="1579.74" cy="520.976" rx="6.28469" ry="6.02379" fill="black" fill-opacity="0.99"/>
<ellipse cx="1595.46" cy="520.976" rx="6.28469" ry="6.02379" fill="black" fill-opacity="0.99"/>
<ellipse cx="1611.17" cy="520.976" rx="6.28469" ry="6.02379" fill="black" fill-opacity="0.99"/>
<ellipse cx="1626.88" cy="520.976" rx="6.28469" ry="6.02379" fill="black" fill-opacity="0.99"/>
<ellipse cx="1642.59" cy="520.976" rx="6.28469" ry="6.02379" fill="black" fill-opacity="0.99"/>
<ellipse cx="1658.3" cy="520.976" rx="6.28469" ry="6.02379" fill="black" fill-opacity="0.99"/>
<ellipse cx="1674.02" cy="520.976" rx="6.28469" ry="6.02379" fill="black" fill-opacity="0.99"/>
<ellipse cx="1689.73" cy="520.976" rx="6.28469" ry="6.02379" fill="black" fill-opacity="0.99"/>
<ellipse cx="1705.44" cy="520.976" rx="6.28469" ry="6.02379" fill="black" fill-opacity="0.99"/>
<ellipse cx="1721.15" cy="520.976" rx="6.28469" ry="6.02379" fill="black" fill-opacity="0.99"/>
<ellipse cx="1736.86" cy="520.976" rx="6.28469" ry="6.02379" fill="black" fill-opacity="0.99"/>
<ellipse cx="1454.05" cy="490.857" rx="6.28469" ry="6.02379" fill="black" fill-opacity="0.99"/>
<ellipse cx="1469.76" cy="490.857" rx="6.28469" ry="6.02379" fill="black" fill-opacity="0.99"/>
<ellipse cx="1485.47" cy="490.857" rx="6.28469" ry="6.02379" fill="black" fill-opacity="0.99"/>
<ellipse cx="1501.19" cy="490.857" rx="6.28469" ry="6.02379" fill="black" fill-opacity="0.99"/>
<ellipse cx="1516.9" cy="490.857" rx="6.28469" ry="6.02379" fill="black" fill-opacity="0.99"/>
<ellipse cx="1532.61" cy="490.857" rx="6.28469" ry="6.02379" fill="black" fill-opacity="0.99"/>
<ellipse cx="1548.32" cy="490.857" rx="6.28469" ry="6.02379" fill="black" fill-opacity="0.99"/>
<ellipse cx="1564.03" cy="490.857" rx="6.28469" ry="6.02379" fill="black" fill-opacity="0.99"/>
<ellipse cx="1579.74" cy="490.857" rx="6.28469" ry="6.02379" fill="black" fill-opacity="0.99"/>
<ellipse cx="1595.46" cy="490.857" rx="6.28469" ry="6.02379" fill="black" fill-opacity="0.99"/>
<ellipse cx="1611.17" cy="490.857" rx="6.28469" ry="6.02379" fill="black" fill-opacity="0.99"/>
<ellipse cx="1626.88" cy="490.857" rx="6.28469" ry="6.02379" fill="black" fill-opacity="0.99"/>
<ellipse cx="1642.59" cy="490.857" rx="6.28469" ry="6.02379" fill="black" fill-opacity="0.99"/>
<ellipse cx="1658.3" cy="490.857" rx="6.28469" ry="6.02379" fill="black" fill-opacity="0.99"/>
<ellipse cx="1674.02" cy="490.857" rx="6.28469" ry="6.02379" fill="black" fill-opacity="0.99"/>
<ellipse cx="1689.73" cy="490.857" rx="6.28469" ry="6.02379" fill="black" fill-opacity="0.99"/>
<ellipse cx="1705.44" cy="490.857" rx="6.28469" ry="6.02379" fill="black" fill-opacity="0.99"/>
<ellipse cx="1721.15" cy="490.857" rx="6.28469" ry="6.02379" fill="black" fill-opacity="0.99"/>
<ellipse cx="1736.86" cy="490.857" rx="6.28469" ry="6.02379" fill="black" fill-opacity="0.99"/>
<ellipse cx="1736.86" cy="475.798" rx="6.28469" ry="6.02379" fill="black" fill-opacity="0.99"/>
<ellipse cx="1752.57" cy="520.976" rx="6.28469" ry="6.02379" fill="black" fill-opacity="0.99"/>
<ellipse cx="1768.28" cy="520.976" rx="6.28469" ry="6.02379" fill="black" fill-opacity="0.99"/>
<ellipse cx="1768.28" cy="505.916" rx="6.28469" ry="6.02379" fill="black" fill-opacity="0.99"/>
<ellipse cx="1768.28" cy="490.857" rx="6.28469" ry="6.02379" fill="black" fill-opacity="0.99"/>
<ellipse cx="1768.28" cy="475.798" rx="6.28469" ry="6.02379" fill="black" fill-opacity="0.99"/>
<ellipse cx="1768.28" cy="460.738" rx="6.28469" ry="6.02379" fill="black" fill-opacity="0.99"/>
<ellipse cx="1768.28" cy="445.678" rx="6.28469" ry="6.02379" fill="black" fill-opacity="0.99"/>
<ellipse cx="1768.28" cy="430.619" rx="6.28469" ry="6.02379" fill="black" fill-opacity="0.99"/>
<ellipse cx="1768.28" cy="415.56" rx="6.28469" ry="6.02379" fill="black" fill-opacity="0.99"/>
<ellipse cx="1768.28" cy="400.5" rx="6.28469" ry="6.02379" fill="black" fill-opacity="0.99"/>
<ellipse cx="1768.28" cy="385.441" rx="6.28469" ry="6.02379" fill="black" fill-opacity="0.99"/>
<ellipse cx="1768.28" cy="370.381" rx="6.28469" ry="6.02379" fill="black" fill-opacity="0.99"/>
<ellipse cx="1768.28" cy="355.322" rx="6.28469" ry="6.02379" fill="black" fill-opacity="0.99"/>
<ellipse cx="1768.28" cy="340.263" rx="6.28469" ry="6.02379" fill="black" fill-opacity="0.99"/>
<ellipse cx="1768.28" cy="325.202" rx="6.28469" ry="6.02379" fill="black" fill-opacity="0.99"/>
<ellipse cx="1768.28" cy="310.143" rx="6.28469" ry="6.02379" fill="black" fill-opacity="0.99"/>
<ellipse cx="1768.28" cy="295.084" rx="6.28469" ry="6.02379" fill="black" fill-opacity="0.99"/>
<ellipse cx="1768.28" cy="280.025" rx="6.28469" ry="6.02379" fill="black" fill-opacity="0.99"/>
<ellipse cx="1768.28" cy="264.965" rx="6.28469" ry="6.02379" fill="black" fill-opacity="0.99"/>
<ellipse cx="1768.28" cy="249.906" rx="6.28469" ry="6.02379" fill="black" fill-opacity="0.99"/>
<ellipse cx="1768.28" cy="234.847" rx="6.28469" ry="6.02379" fill="black" fill-opacity="0.99"/>
<ellipse cx="1768.28" cy="219.787" rx="6.28469" ry="6.02379" fill="black" fill-opacity="0.99"/>
<ellipse cx="1768.28" cy="204.727" rx="6.28469" ry="6.02379" fill="black" fill-opacity="0.99"/>
<ellipse cx="1768.28" cy="189.667" rx="6.28469" ry="6.02379" fill="black" fill-opacity="0.99"/>
<ellipse cx="1768.28" cy="174.609" rx="6.28469" ry="6.02379" fill="black" fill-opacity="0.99"/>
<ellipse cx="1768.28" cy="159.549" rx="6.28469" ry="6.02379" fill="black" fill-opacity="0.99"/>
<ellipse cx="1768.28" cy="144.49" rx="6.28469" ry="6.02379" fill="black" fill-opacity="0.99"/>
<ellipse cx="1768.28" cy="129.43" rx="6.28469" ry="6.02379" fill="black" fill-opacity="0.99"/>
<ellipse cx="1768.28" cy="114.37" rx="6.28469" ry="6.02379" fill="black" fill-opacity="0.99"/>
<ellipse cx="1768.28" cy="99.3109" rx="6.28469" ry="6.02379" fill="black" fill-opacity="0.99"/>
<ellipse cx="1768.28" cy="84.2513" rx="6.28469" ry="6.02379" fill="black" fill-opacity="0.99"/>
<ellipse cx="1768.28" cy="69.1927" rx="6.28469" ry="6.02379" fill="black" fill-opacity="0.99"/>
<ellipse cx="1768.28" cy="54.1327" rx="6.28469" ry="6.02379" fill="black" fill-opacity="0.99"/>
<ellipse cx="1768.28" cy="39.0736" rx="6.28469" ry="6.02379" fill="black" fill-opacity="0.99"/>
<ellipse cx="1768.28" cy="24.0135" rx="6.28469" ry="6.02379" fill="black" fill-opacity="0.99"/>
<ellipse cx="1768.28" cy="8.95347" rx="6.28469" ry="6.02379" fill="black" fill-opacity="0.99"/>
<ellipse cx="55.7066" cy="460.738" rx="6.28469" ry="6.02379" fill="black" fill-opacity="0.99"/>
<ellipse cx="55.7066" cy="475.798" rx="6.28469" ry="6.02379" fill="black" fill-opacity="0.99"/>
<ellipse cx="55.7066" cy="490.857" rx="6.28469" ry="6.02379" fill="black" fill-opacity="0.99"/>
<ellipse cx="55.7066" cy="445.678" rx="6.28469" ry="6.02379" fill="black" fill-opacity="0.99"/>
<ellipse cx="55.7066" cy="430.619" rx="6.28469" ry="6.02379" fill="black" fill-opacity="0.99"/>
<ellipse cx="55.7066" cy="415.56" rx="6.28469" ry="6.02379" fill="black" fill-opacity="0.99"/>
<ellipse cx="55.7066" cy="400.5" rx="6.28469" ry="6.02379" fill="black" fill-opacity="0.99"/>
<ellipse cx="55.7066" cy="385.441" rx="6.28469" ry="6.02379" fill="black" fill-opacity="0.99"/>
<ellipse cx="55.7066" cy="370.381" rx="6.28469" ry="6.02379" fill="black" fill-opacity="0.99"/>
<ellipse cx="55.7066" cy="355.322" rx="6.28469" ry="6.02379" fill="black" fill-opacity="0.99"/>
<ellipse cx="55.7066" cy="340.263" rx="6.28469" ry="6.02379" fill="black" fill-opacity="0.99"/>
<ellipse cx="55.7066" cy="325.202" rx="6.28469" ry="6.02379" fill="black" fill-opacity="0.99"/>
<ellipse cx="55.7066" cy="310.143" rx="6.28469" ry="6.02379" fill="black" fill-opacity="0.99"/>
<ellipse cx="55.7066" cy="295.084" rx="6.28469" ry="6.02379" fill="black" fill-opacity="0.99"/>
<ellipse cx="55.7066" cy="280.025" rx="6.28469" ry="6.02379" fill="black" fill-opacity="0.99"/>
<ellipse cx="55.7066" cy="264.965" rx="6.28469" ry="6.02379" fill="black" fill-opacity="0.99"/>
<ellipse cx="55.7066" cy="249.906" rx="6.28469" ry="6.02379" fill="black" fill-opacity="0.99"/>
<ellipse cx="55.7066" cy="234.847" rx="6.28469" ry="6.02379" fill="black" fill-opacity="0.99"/>
<ellipse cx="55.7066" cy="219.787" rx="6.28469" ry="6.02379" fill="black" fill-opacity="0.99"/>
<ellipse cx="55.7066" cy="204.727" rx="6.28469" ry="6.02379" fill="black" fill-opacity="0.99"/>
<ellipse cx="55.7066" cy="189.667" rx="6.28469" ry="6.02379" fill="black" fill-opacity="0.99"/>
<ellipse cx="55.7066" cy="174.609" rx="6.28469" ry="6.02379" fill="black" fill-opacity="0.99"/>
<ellipse cx="55.7066" cy="159.549" rx="6.28469" ry="6.02379" fill="black" fill-opacity="0.99"/>
<ellipse cx="55.7066" cy="144.49" rx="6.28469" ry="6.02379" fill="black" fill-opacity="0.99"/>
<ellipse cx="55.7066" cy="129.43" rx="6.28469" ry="6.02379" fill="black" fill-opacity="0.99"/>
<ellipse cx="55.7066" cy="114.37" rx="6.28469" ry="6.02379" fill="black" fill-opacity="0.99"/>
<ellipse cx="55.7066" cy="99.3109" rx="6.28469" ry="6.02379" fill="black" fill-opacity="0.99"/>
<ellipse cx="55.7066" cy="84.2513" rx="6.28469" ry="6.02379" fill="black" fill-opacity="0.99"/>
<ellipse cx="55.7066" cy="69.1927" rx="6.28469" ry="6.02379" fill="black" fill-opacity="0.99"/>
<ellipse cx="55.7066" cy="54.1327" rx="6.28469" ry="6.02379" fill="black" fill-opacity="0.99"/>
<ellipse cx="55.7066" cy="39.0736" rx="6.28469" ry="6.02379" fill="black" fill-opacity="0.99"/>
<ellipse cx="55.7066" cy="24.0135" rx="6.28469" ry="6.02379" fill="black" fill-opacity="0.99"/>
<ellipse cx="55.7066" cy="8.95347" rx="6.28469" ry="6.02379" fill="black" fill-opacity="0.99"/>
<ellipse cx="1736.86" cy="310.143" rx="6.28469" ry="6.02379" fill="black" fill-opacity="0.99"/>
<ellipse cx="1736.86" cy="295.084" rx="6.28469" ry="6.02379" fill="black" fill-opacity="0.99"/>
<ellipse cx="1736.86" cy="280.025" rx="6.28469" ry="6.02379" fill="black" fill-opacity="0.99"/>
<ellipse cx="1736.86" cy="264.965" rx="6.28469" ry="6.02379" fill="black" fill-opacity="0.99"/>
<ellipse cx="1736.86" cy="249.906" rx="6.28469" ry="6.02379" fill="black" fill-opacity="0.99"/>
<ellipse cx="1736.86" cy="385.441" rx="6.28469" ry="6.02379" fill="black" fill-opacity="0.99"/>
<ellipse cx="1736.86" cy="370.381" rx="6.28469" ry="6.02379" fill="black" fill-opacity="0.99"/>
<ellipse cx="1736.86" cy="355.322" rx="6.28469" ry="6.02379" fill="black" fill-opacity="0.99"/>
<ellipse cx="1736.86" cy="340.263" rx="6.28469" ry="6.02379" fill="black" fill-opacity="0.99"/>
<ellipse cx="1736.86" cy="325.202" rx="6.28469" ry="6.02379" fill="black" fill-opacity="0.99"/>
<ellipse cx="1736.86" cy="460.738" rx="6.28469" ry="6.02379" fill="black" fill-opacity="0.99"/>
<ellipse cx="1736.86" cy="445.678" rx="6.28469" ry="6.02379" fill="black" fill-opacity="0.99"/>
<ellipse cx="1736.86" cy="430.619" rx="6.28469" ry="6.02379" fill="black" fill-opacity="0.99"/>
<ellipse cx="1736.86" cy="415.56" rx="6.28469" ry="6.02379" fill="black" fill-opacity="0.99"/>
<ellipse cx="1736.86" cy="400.5" rx="6.28469" ry="6.02379" fill="black" fill-opacity="0.99"/>
<ellipse cx="1736.86" cy="234.847" rx="6.28469" ry="6.02379" fill="black" fill-opacity="0.99"/>
<ellipse cx="1736.86" cy="219.787" rx="6.28469" ry="6.02379" fill="black" fill-opacity="0.99"/>
<ellipse cx="1736.86" cy="204.727" rx="6.28469" ry="6.02379" fill="black" fill-opacity="0.99"/>
<ellipse cx="1736.86" cy="189.667" rx="6.28469" ry="6.02379" fill="black" fill-opacity="0.99"/>
<ellipse cx="1736.86" cy="174.609" rx="6.28469" ry="6.02379" fill="black" fill-opacity="0.99"/>
<ellipse cx="1736.86" cy="159.549" rx="6.28469" ry="6.02379" fill="black" fill-opacity="0.99"/>
<ellipse cx="1736.86" cy="144.49" rx="6.28469" ry="6.02379" fill="black" fill-opacity="0.99"/>
<ellipse cx="1736.86" cy="129.43" rx="6.28469" ry="6.02379" fill="black" fill-opacity="0.99"/>
<ellipse cx="1736.86" cy="114.37" rx="6.28469" ry="6.02379" fill="black" fill-opacity="0.99"/>
<ellipse cx="1736.86" cy="99.3109" rx="6.28469" ry="6.02379" fill="black" fill-opacity="0.99"/>
<ellipse cx="1736.86" cy="84.2513" rx="6.28469" ry="6.02379" fill="black" fill-opacity="0.99"/>
<ellipse cx="1736.86" cy="69.1927" rx="6.28469" ry="6.02379" fill="black" fill-opacity="0.99"/>
<ellipse cx="1736.86" cy="54.1327" rx="6.28469" ry="6.02379" fill="black" fill-opacity="0.99"/>
<ellipse cx="1736.86" cy="39.0736" rx="6.28469" ry="6.02379" fill="black" fill-opacity="0.99"/>
<ellipse cx="1736.86" cy="24.0135" rx="6.28469" ry="6.02379" fill="black" fill-opacity="0.99"/>
<ellipse cx="1736.86" cy="8.95347" rx="6.28469" ry="6.02379" fill="black" fill-opacity="0.99"/>
<path d="M154 32L1637 36.5" stroke="black" stroke-opacity="0.99" stroke-width="2" stroke-linecap="round"/>
<path d="M154 21L1637 25.5" stroke="black" stroke-opacity="0.99" stroke-width="2" stroke-linecap="round"/>
</g>
<defs>
<clipPath id="clip0_117_6246">
<rect width="1791" height="539" fill="white"/>
</clipPath>
</defs>
</svg>
