<svg width="1791" height="904" viewBox="0 0 1791 904" fill="none" xmlns="http://www.w3.org/2000/svg">
<g clip-path="url(#clip0_113_3760)">
<rect width="1791" height="904" fill="#D8C6BA"/>
<path d="M39.9961 2958.41V-36.917H1752.57V2958.41H39.9961Z" stroke="black" stroke-opacity="0.99" stroke-width="4"/>
<ellipse cx="24.2847" cy="8.26158" rx="6.28469" ry="6.02379" fill="black" fill-opacity="0.99"/>
<ellipse cx="24.2847" cy="23.3216" rx="6.28469" ry="6.02379" fill="black" fill-opacity="0.99"/>
<ellipse cx="24.2847" cy="38.3802" rx="6.28469" ry="6.02379" fill="black" fill-opacity="0.99"/>
<ellipse cx="24.2847" cy="53.4398" rx="6.28469" ry="6.02379" fill="black" fill-opacity="0.99"/>
<ellipse cx="24.2847" cy="68.4989" rx="6.28469" ry="6.02379" fill="black" fill-opacity="0.99"/>
<ellipse cx="24.2847" cy="83.5585" rx="6.28469" ry="6.02379" fill="black" fill-opacity="0.99"/>
<ellipse cx="24.2847" cy="98.619" rx="6.28469" ry="6.02379" fill="black" fill-opacity="0.99"/>
<ellipse cx="24.2847" cy="113.678" rx="6.28469" ry="6.02379" fill="black" fill-opacity="0.99"/>
<ellipse cx="24.2847" cy="128.738" rx="6.28469" ry="6.02379" fill="black" fill-opacity="0.99"/>
<ellipse cx="24.2847" cy="143.797" rx="6.28469" ry="6.02379" fill="black" fill-opacity="0.99"/>
<ellipse cx="24.2847" cy="158.856" rx="6.28469" ry="6.02379" fill="black" fill-opacity="0.99"/>
<ellipse cx="24.2847" cy="173.915" rx="6.28469" ry="6.02379" fill="black" fill-opacity="0.99"/>
<ellipse cx="24.2847" cy="188.975" rx="6.28469" ry="6.02379" fill="black" fill-opacity="0.99"/>
<ellipse cx="24.2847" cy="204.035" rx="6.28469" ry="6.02379" fill="black" fill-opacity="0.99"/>
<ellipse cx="24.2847" cy="219.094" rx="6.28469" ry="6.02379" fill="black" fill-opacity="0.99"/>
<ellipse cx="24.2847" cy="234.154" rx="6.28469" ry="6.02379" fill="black" fill-opacity="0.99"/>
<ellipse cx="24.2847" cy="249.213" rx="6.28469" ry="6.02379" fill="black" fill-opacity="0.99"/>
<ellipse cx="24.2847" cy="264.272" rx="6.28469" ry="6.02379" fill="black" fill-opacity="0.99"/>
<ellipse cx="24.2847" cy="279.332" rx="6.28469" ry="6.02379" fill="black" fill-opacity="0.99"/>
<ellipse cx="24.2847" cy="294.392" rx="6.28469" ry="6.02379" fill="black" fill-opacity="0.99"/>
<ellipse cx="24.2847" cy="309.451" rx="6.28469" ry="6.02379" fill="black" fill-opacity="0.99"/>
<ellipse cx="24.2847" cy="324.511" rx="6.28469" ry="6.02379" fill="black" fill-opacity="0.99"/>
<ellipse cx="24.2847" cy="339.569" rx="6.28469" ry="6.02379" fill="black" fill-opacity="0.99"/>
<ellipse cx="24.2847" cy="354.629" rx="6.28469" ry="6.02379" fill="black" fill-opacity="0.99"/>
<ellipse cx="24.2847" cy="369.689" rx="6.28469" ry="6.02379" fill="black" fill-opacity="0.99"/>
<ellipse cx="24.2847" cy="384.748" rx="6.28469" ry="6.02379" fill="black" fill-opacity="0.99"/>
<ellipse cx="24.2847" cy="399.808" rx="6.28469" ry="6.02379" fill="black" fill-opacity="0.99"/>
<ellipse cx="24.2847" cy="414.867" rx="6.28469" ry="6.02379" fill="black" fill-opacity="0.99"/>
<ellipse cx="24.2847" cy="429.927" rx="6.28469" ry="6.02379" fill="black" fill-opacity="0.99"/>
<ellipse cx="24.2847" cy="444.986" rx="6.28469" ry="6.02379" fill="black" fill-opacity="0.99"/>
<ellipse cx="24.2847" cy="460.046" rx="6.28469" ry="6.02379" fill="black" fill-opacity="0.99"/>
<ellipse cx="24.2847" cy="475.105" rx="6.28469" ry="6.02379" fill="black" fill-opacity="0.99"/>
<ellipse cx="24.2847" cy="490.164" rx="6.28469" ry="6.02379" fill="black" fill-opacity="0.99"/>
<ellipse cx="24.2847" cy="505.224" rx="6.28469" ry="6.02379" fill="black" fill-opacity="0.99"/>
<ellipse cx="24.2847" cy="520.283" rx="6.28469" ry="6.02379" fill="black" fill-opacity="0.99"/>
<ellipse cx="24.2847" cy="535.343" rx="6.28469" ry="6.02379" fill="black" fill-opacity="0.99"/>
<ellipse cx="24.2847" cy="550.402" rx="6.28469" ry="6.02379" fill="black" fill-opacity="0.99"/>
<ellipse cx="24.2847" cy="565.462" rx="6.28469" ry="6.02379" fill="black" fill-opacity="0.99"/>
<ellipse cx="24.2847" cy="580.521" rx="6.28469" ry="6.02379" fill="black" fill-opacity="0.99"/>
<ellipse cx="24.2847" cy="595.581" rx="6.28469" ry="6.02379" fill="black" fill-opacity="0.99"/>
<ellipse cx="24.2847" cy="610.64" rx="6.28469" ry="6.02379" fill="black" fill-opacity="0.99"/>
<ellipse cx="24.2847" cy="625.7" rx="6.28469" ry="6.02379" fill="black" fill-opacity="0.99"/>
<ellipse cx="24.2847" cy="640.76" rx="6.28469" ry="6.02379" fill="black" fill-opacity="0.99"/>
<ellipse cx="24.2847" cy="655.819" rx="6.28469" ry="6.02379" fill="black" fill-opacity="0.99"/>
<ellipse cx="24.2847" cy="670.878" rx="6.28469" ry="6.02379" fill="black" fill-opacity="0.99"/>
<ellipse cx="24.2847" cy="685.937" rx="6.28469" ry="6.02379" fill="black" fill-opacity="0.99"/>
<ellipse cx="24.2847" cy="700.997" rx="6.28469" ry="6.02379" fill="black" fill-opacity="0.99"/>
<ellipse cx="24.2847" cy="716.056" rx="6.28469" ry="6.02379" fill="black" fill-opacity="0.99"/>
<ellipse cx="24.2847" cy="731.116" rx="6.28469" ry="6.02379" fill="black" fill-opacity="0.99"/>
<ellipse cx="24.2847" cy="746.175" rx="6.28469" ry="6.02379" fill="black" fill-opacity="0.99"/>
<ellipse cx="24.2847" cy="761.235" rx="6.28469" ry="6.02379" fill="black" fill-opacity="0.99"/>
<ellipse cx="24.2847" cy="776.294" rx="6.28469" ry="6.02379" fill="black" fill-opacity="0.99"/>
<ellipse cx="24.2847" cy="791.354" rx="6.28469" ry="6.02379" fill="black" fill-opacity="0.99"/>
<ellipse cx="24.2847" cy="806.413" rx="6.28469" ry="6.02379" fill="black" fill-opacity="0.99"/>
<ellipse cx="24.2847" cy="821.472" rx="6.28469" ry="6.02379" fill="black" fill-opacity="0.99"/>
<ellipse cx="24.2847" cy="836.533" rx="6.28469" ry="6.02379" fill="black" fill-opacity="0.99"/>
<ellipse cx="24.2847" cy="851.592" rx="6.28469" ry="6.02379" fill="black" fill-opacity="0.99"/>
<ellipse cx="24.2847" cy="866.651" rx="6.28469" ry="6.02379" fill="black" fill-opacity="0.99"/>
<ellipse cx="24.2847" cy="881.71" rx="6.28469" ry="6.02379" fill="black" fill-opacity="0.99"/>
<ellipse cx="24.2847" cy="896.77" rx="6.28469" ry="6.02379" fill="black" fill-opacity="0.99"/>
<ellipse cx="1768.28" cy="896.77" rx="6.28469" ry="6.02379" fill="black" fill-opacity="0.99"/>
<ellipse cx="1768.28" cy="881.71" rx="6.28469" ry="6.02379" fill="black" fill-opacity="0.99"/>
<ellipse cx="1768.28" cy="866.651" rx="6.28469" ry="6.02379" fill="black" fill-opacity="0.99"/>
<ellipse cx="1768.28" cy="851.592" rx="6.28469" ry="6.02379" fill="black" fill-opacity="0.99"/>
<ellipse cx="1768.28" cy="836.533" rx="6.28469" ry="6.02379" fill="black" fill-opacity="0.99"/>
<ellipse cx="1768.28" cy="821.472" rx="6.28469" ry="6.02379" fill="black" fill-opacity="0.99"/>
<ellipse cx="1768.28" cy="806.413" rx="6.28469" ry="6.02379" fill="black" fill-opacity="0.99"/>
<ellipse cx="1768.28" cy="791.354" rx="6.28469" ry="6.02379" fill="black" fill-opacity="0.99"/>
<ellipse cx="1768.28" cy="776.294" rx="6.28469" ry="6.02379" fill="black" fill-opacity="0.99"/>
<ellipse cx="1768.28" cy="761.235" rx="6.28469" ry="6.02379" fill="black" fill-opacity="0.99"/>
<ellipse cx="1768.28" cy="746.175" rx="6.28469" ry="6.02379" fill="black" fill-opacity="0.99"/>
<ellipse cx="1768.28" cy="731.116" rx="6.28469" ry="6.02379" fill="black" fill-opacity="0.99"/>
<ellipse cx="1768.28" cy="716.056" rx="6.28469" ry="6.02379" fill="black" fill-opacity="0.99"/>
<ellipse cx="1768.28" cy="700.997" rx="6.28469" ry="6.02379" fill="black" fill-opacity="0.99"/>
<ellipse cx="1768.28" cy="685.937" rx="6.28469" ry="6.02379" fill="black" fill-opacity="0.99"/>
<ellipse cx="1768.28" cy="670.878" rx="6.28469" ry="6.02379" fill="black" fill-opacity="0.99"/>
<ellipse cx="1768.28" cy="655.819" rx="6.28469" ry="6.02379" fill="black" fill-opacity="0.99"/>
<ellipse cx="1768.28" cy="640.76" rx="6.28469" ry="6.02379" fill="black" fill-opacity="0.99"/>
<ellipse cx="1768.28" cy="625.7" rx="6.28469" ry="6.02379" fill="black" fill-opacity="0.99"/>
<ellipse cx="1768.28" cy="610.64" rx="6.28469" ry="6.02379" fill="black" fill-opacity="0.99"/>
<ellipse cx="1768.28" cy="595.581" rx="6.28469" ry="6.02379" fill="black" fill-opacity="0.99"/>
<ellipse cx="1768.28" cy="580.521" rx="6.28469" ry="6.02379" fill="black" fill-opacity="0.99"/>
<ellipse cx="1768.28" cy="565.462" rx="6.28469" ry="6.02379" fill="black" fill-opacity="0.99"/>
<ellipse cx="1768.28" cy="550.402" rx="6.28469" ry="6.02379" fill="black" fill-opacity="0.99"/>
<ellipse cx="1768.28" cy="535.343" rx="6.28469" ry="6.02379" fill="black" fill-opacity="0.99"/>
<ellipse cx="1768.28" cy="520.283" rx="6.28469" ry="6.02379" fill="black" fill-opacity="0.99"/>
<ellipse cx="1768.28" cy="505.224" rx="6.28469" ry="6.02379" fill="black" fill-opacity="0.99"/>
<ellipse cx="1768.28" cy="490.164" rx="6.28469" ry="6.02379" fill="black" fill-opacity="0.99"/>
<ellipse cx="1768.28" cy="475.105" rx="6.28469" ry="6.02379" fill="black" fill-opacity="0.99"/>
<ellipse cx="1768.28" cy="460.046" rx="6.28469" ry="6.02379" fill="black" fill-opacity="0.99"/>
<ellipse cx="1768.28" cy="444.986" rx="6.28469" ry="6.02379" fill="black" fill-opacity="0.99"/>
<ellipse cx="1768.28" cy="429.927" rx="6.28469" ry="6.02379" fill="black" fill-opacity="0.99"/>
<ellipse cx="1768.28" cy="414.867" rx="6.28469" ry="6.02379" fill="black" fill-opacity="0.99"/>
<ellipse cx="1768.28" cy="399.808" rx="6.28469" ry="6.02379" fill="black" fill-opacity="0.99"/>
<ellipse cx="1768.28" cy="384.748" rx="6.28469" ry="6.02379" fill="black" fill-opacity="0.99"/>
<ellipse cx="1768.28" cy="369.689" rx="6.28469" ry="6.02379" fill="black" fill-opacity="0.99"/>
<ellipse cx="1768.28" cy="354.629" rx="6.28469" ry="6.02379" fill="black" fill-opacity="0.99"/>
<ellipse cx="1768.28" cy="339.569" rx="6.28469" ry="6.02379" fill="black" fill-opacity="0.99"/>
<ellipse cx="1768.28" cy="324.511" rx="6.28469" ry="6.02379" fill="black" fill-opacity="0.99"/>
<ellipse cx="1768.28" cy="309.451" rx="6.28469" ry="6.02379" fill="black" fill-opacity="0.99"/>
<ellipse cx="1768.28" cy="294.392" rx="6.28469" ry="6.02379" fill="black" fill-opacity="0.99"/>
<ellipse cx="1768.28" cy="279.332" rx="6.28469" ry="6.02379" fill="black" fill-opacity="0.99"/>
<ellipse cx="1768.28" cy="264.272" rx="6.28469" ry="6.02379" fill="black" fill-opacity="0.99"/>
<ellipse cx="1768.28" cy="249.213" rx="6.28469" ry="6.02379" fill="black" fill-opacity="0.99"/>
<ellipse cx="1768.28" cy="234.154" rx="6.28469" ry="6.02379" fill="black" fill-opacity="0.99"/>
<ellipse cx="1768.28" cy="219.094" rx="6.28469" ry="6.02379" fill="black" fill-opacity="0.99"/>
<ellipse cx="1768.28" cy="204.035" rx="6.28469" ry="6.02379" fill="black" fill-opacity="0.99"/>
<ellipse cx="1768.28" cy="188.975" rx="6.28469" ry="6.02379" fill="black" fill-opacity="0.99"/>
<ellipse cx="1768.28" cy="173.915" rx="6.28469" ry="6.02379" fill="black" fill-opacity="0.99"/>
<ellipse cx="1768.28" cy="158.856" rx="6.28469" ry="6.02379" fill="black" fill-opacity="0.99"/>
<ellipse cx="1768.28" cy="143.797" rx="6.28469" ry="6.02379" fill="black" fill-opacity="0.99"/>
<ellipse cx="1768.28" cy="128.738" rx="6.28469" ry="6.02379" fill="black" fill-opacity="0.99"/>
<ellipse cx="1768.28" cy="113.678" rx="6.28469" ry="6.02379" fill="black" fill-opacity="0.99"/>
<ellipse cx="1768.28" cy="98.619" rx="6.28469" ry="6.02379" fill="black" fill-opacity="0.99"/>
<ellipse cx="1768.28" cy="83.5585" rx="6.28469" ry="6.02379" fill="black" fill-opacity="0.99"/>
<ellipse cx="1768.28" cy="68.4989" rx="6.28469" ry="6.02379" fill="black" fill-opacity="0.99"/>
<ellipse cx="1768.28" cy="53.4398" rx="6.28469" ry="6.02379" fill="black" fill-opacity="0.99"/>
<ellipse cx="1768.28" cy="38.3802" rx="6.28469" ry="6.02379" fill="black" fill-opacity="0.99"/>
<ellipse cx="1768.28" cy="23.3216" rx="6.28469" ry="6.02379" fill="black" fill-opacity="0.99"/>
<ellipse cx="1768.28" cy="8.26158" rx="6.28469" ry="6.02379" fill="black" fill-opacity="0.99"/>
<ellipse cx="55.7066" cy="896.77" rx="6.28469" ry="6.02379" fill="black" fill-opacity="0.99"/>
<ellipse cx="55.7066" cy="881.71" rx="6.28469" ry="6.02379" fill="black" fill-opacity="0.99"/>
<ellipse cx="55.7066" cy="866.651" rx="6.28469" ry="6.02379" fill="black" fill-opacity="0.99"/>
<ellipse cx="55.7066" cy="851.592" rx="6.28469" ry="6.02379" fill="black" fill-opacity="0.99"/>
<ellipse cx="55.7066" cy="836.533" rx="6.28469" ry="6.02379" fill="black" fill-opacity="0.99"/>
<ellipse cx="55.7066" cy="821.472" rx="6.28469" ry="6.02379" fill="black" fill-opacity="0.99"/>
<ellipse cx="55.7066" cy="806.413" rx="6.28469" ry="6.02379" fill="black" fill-opacity="0.99"/>
<ellipse cx="55.7066" cy="791.354" rx="6.28469" ry="6.02379" fill="black" fill-opacity="0.99"/>
<ellipse cx="55.7066" cy="776.294" rx="6.28469" ry="6.02379" fill="black" fill-opacity="0.99"/>
<ellipse cx="55.7066" cy="761.235" rx="6.28469" ry="6.02379" fill="black" fill-opacity="0.99"/>
<ellipse cx="55.7066" cy="746.175" rx="6.28469" ry="6.02379" fill="black" fill-opacity="0.99"/>
<ellipse cx="55.7066" cy="731.116" rx="6.28469" ry="6.02379" fill="black" fill-opacity="0.99"/>
<ellipse cx="55.7066" cy="716.056" rx="6.28469" ry="6.02379" fill="black" fill-opacity="0.99"/>
<ellipse cx="55.7066" cy="700.997" rx="6.28469" ry="6.02379" fill="black" fill-opacity="0.99"/>
<ellipse cx="55.7066" cy="685.937" rx="6.28469" ry="6.02379" fill="black" fill-opacity="0.99"/>
<ellipse cx="55.7066" cy="670.878" rx="6.28469" ry="6.02379" fill="black" fill-opacity="0.99"/>
<ellipse cx="55.7066" cy="655.819" rx="6.28469" ry="6.02379" fill="black" fill-opacity="0.99"/>
<ellipse cx="55.7066" cy="640.76" rx="6.28469" ry="6.02379" fill="black" fill-opacity="0.99"/>
<ellipse cx="55.7066" cy="625.7" rx="6.28469" ry="6.02379" fill="black" fill-opacity="0.99"/>
<ellipse cx="55.7066" cy="610.64" rx="6.28469" ry="6.02379" fill="black" fill-opacity="0.99"/>
<ellipse cx="55.7066" cy="595.581" rx="6.28469" ry="6.02379" fill="black" fill-opacity="0.99"/>
<ellipse cx="55.7066" cy="580.521" rx="6.28469" ry="6.02379" fill="black" fill-opacity="0.99"/>
<ellipse cx="55.7066" cy="565.462" rx="6.28469" ry="6.02379" fill="black" fill-opacity="0.99"/>
<ellipse cx="55.7066" cy="550.402" rx="6.28469" ry="6.02379" fill="black" fill-opacity="0.99"/>
<ellipse cx="55.7066" cy="535.343" rx="6.28469" ry="6.02379" fill="black" fill-opacity="0.99"/>
<ellipse cx="55.7066" cy="520.283" rx="6.28469" ry="6.02379" fill="black" fill-opacity="0.99"/>
<ellipse cx="55.7066" cy="505.224" rx="6.28469" ry="6.02379" fill="black" fill-opacity="0.99"/>
<ellipse cx="55.7066" cy="490.164" rx="6.28469" ry="6.02379" fill="black" fill-opacity="0.99"/>
<ellipse cx="55.7066" cy="475.105" rx="6.28469" ry="6.02379" fill="black" fill-opacity="0.99"/>
<ellipse cx="55.7066" cy="460.046" rx="6.28469" ry="6.02379" fill="black" fill-opacity="0.99"/>
<ellipse cx="55.7066" cy="444.986" rx="6.28469" ry="6.02379" fill="black" fill-opacity="0.99"/>
<ellipse cx="55.7066" cy="429.927" rx="6.28469" ry="6.02379" fill="black" fill-opacity="0.99"/>
<ellipse cx="55.7066" cy="414.867" rx="6.28469" ry="6.02379" fill="black" fill-opacity="0.99"/>
<ellipse cx="55.7066" cy="399.808" rx="6.28469" ry="6.02379" fill="black" fill-opacity="0.99"/>
<ellipse cx="55.7066" cy="384.748" rx="6.28469" ry="6.02379" fill="black" fill-opacity="0.99"/>
<ellipse cx="55.7066" cy="369.689" rx="6.28469" ry="6.02379" fill="black" fill-opacity="0.99"/>
<ellipse cx="55.7066" cy="354.629" rx="6.28469" ry="6.02379" fill="black" fill-opacity="0.99"/>
<ellipse cx="55.7066" cy="339.569" rx="6.28469" ry="6.02379" fill="black" fill-opacity="0.99"/>
<ellipse cx="55.7066" cy="324.511" rx="6.28469" ry="6.02379" fill="black" fill-opacity="0.99"/>
<ellipse cx="55.7066" cy="309.451" rx="6.28469" ry="6.02379" fill="black" fill-opacity="0.99"/>
<ellipse cx="55.7066" cy="294.392" rx="6.28469" ry="6.02379" fill="black" fill-opacity="0.99"/>
<ellipse cx="55.7066" cy="279.332" rx="6.28469" ry="6.02379" fill="black" fill-opacity="0.99"/>
<ellipse cx="55.7066" cy="264.272" rx="6.28469" ry="6.02379" fill="black" fill-opacity="0.99"/>
<ellipse cx="55.7066" cy="249.213" rx="6.28469" ry="6.02379" fill="black" fill-opacity="0.99"/>
<ellipse cx="55.7066" cy="234.154" rx="6.28469" ry="6.02379" fill="black" fill-opacity="0.99"/>
<ellipse cx="55.7066" cy="219.094" rx="6.28469" ry="6.02379" fill="black" fill-opacity="0.99"/>
<ellipse cx="55.7066" cy="204.035" rx="6.28469" ry="6.02379" fill="black" fill-opacity="0.99"/>
<ellipse cx="55.7066" cy="188.975" rx="6.28469" ry="6.02379" fill="black" fill-opacity="0.99"/>
<ellipse cx="55.7066" cy="173.915" rx="6.28469" ry="6.02379" fill="black" fill-opacity="0.99"/>
<ellipse cx="55.7066" cy="158.856" rx="6.28469" ry="6.02379" fill="black" fill-opacity="0.99"/>
<ellipse cx="55.7066" cy="143.797" rx="6.28469" ry="6.02379" fill="black" fill-opacity="0.99"/>
<ellipse cx="55.7066" cy="128.738" rx="6.28469" ry="6.02379" fill="black" fill-opacity="0.99"/>
<ellipse cx="55.7066" cy="113.678" rx="6.28469" ry="6.02379" fill="black" fill-opacity="0.99"/>
<ellipse cx="55.7066" cy="98.619" rx="6.28469" ry="6.02379" fill="black" fill-opacity="0.99"/>
<ellipse cx="55.7066" cy="83.5585" rx="6.28469" ry="6.02379" fill="black" fill-opacity="0.99"/>
<ellipse cx="55.7066" cy="68.4989" rx="6.28469" ry="6.02379" fill="black" fill-opacity="0.99"/>
<ellipse cx="55.7066" cy="53.4398" rx="6.28469" ry="6.02379" fill="black" fill-opacity="0.99"/>
<ellipse cx="55.7066" cy="38.3802" rx="6.28469" ry="6.02379" fill="black" fill-opacity="0.99"/>
<ellipse cx="55.7066" cy="23.3216" rx="6.28469" ry="6.02379" fill="black" fill-opacity="0.99"/>
<ellipse cx="55.7066" cy="8.26158" rx="6.28469" ry="6.02379" fill="black" fill-opacity="0.99"/>
<ellipse cx="1736.86" cy="896.77" rx="6.28469" ry="6.02379" fill="black" fill-opacity="0.99"/>
<ellipse cx="1736.86" cy="881.71" rx="6.28469" ry="6.02379" fill="black" fill-opacity="0.99"/>
<ellipse cx="1736.86" cy="866.651" rx="6.28469" ry="6.02379" fill="black" fill-opacity="0.99"/>
<ellipse cx="1736.86" cy="851.592" rx="6.28469" ry="6.02379" fill="black" fill-opacity="0.99"/>
<ellipse cx="1736.86" cy="836.533" rx="6.28469" ry="6.02379" fill="black" fill-opacity="0.99"/>
<ellipse cx="1736.86" cy="821.472" rx="6.28469" ry="6.02379" fill="black" fill-opacity="0.99"/>
<ellipse cx="1736.86" cy="806.413" rx="6.28469" ry="6.02379" fill="black" fill-opacity="0.99"/>
<ellipse cx="1736.86" cy="791.354" rx="6.28469" ry="6.02379" fill="black" fill-opacity="0.99"/>
<ellipse cx="1736.86" cy="776.294" rx="6.28469" ry="6.02379" fill="black" fill-opacity="0.99"/>
<ellipse cx="1736.86" cy="761.235" rx="6.28469" ry="6.02379" fill="black" fill-opacity="0.99"/>
<ellipse cx="1736.86" cy="746.175" rx="6.28469" ry="6.02379" fill="black" fill-opacity="0.99"/>
<ellipse cx="1736.86" cy="731.116" rx="6.28469" ry="6.02379" fill="black" fill-opacity="0.99"/>
<ellipse cx="1736.86" cy="716.056" rx="6.28469" ry="6.02379" fill="black" fill-opacity="0.99"/>
<ellipse cx="1736.86" cy="700.997" rx="6.28469" ry="6.02379" fill="black" fill-opacity="0.99"/>
<ellipse cx="1736.86" cy="685.937" rx="6.28469" ry="6.02379" fill="black" fill-opacity="0.99"/>
<ellipse cx="1736.86" cy="670.878" rx="6.28469" ry="6.02379" fill="black" fill-opacity="0.99"/>
<ellipse cx="1736.86" cy="655.819" rx="6.28469" ry="6.02379" fill="black" fill-opacity="0.99"/>
<ellipse cx="1736.86" cy="640.76" rx="6.28469" ry="6.02379" fill="black" fill-opacity="0.99"/>
<ellipse cx="1736.86" cy="625.7" rx="6.28469" ry="6.02379" fill="black" fill-opacity="0.99"/>
<ellipse cx="1736.86" cy="610.64" rx="6.28469" ry="6.02379" fill="black" fill-opacity="0.99"/>
<ellipse cx="1736.86" cy="595.581" rx="6.28469" ry="6.02379" fill="black" fill-opacity="0.99"/>
<ellipse cx="1736.86" cy="580.521" rx="6.28469" ry="6.02379" fill="black" fill-opacity="0.99"/>
<ellipse cx="1736.86" cy="565.462" rx="6.28469" ry="6.02379" fill="black" fill-opacity="0.99"/>
<ellipse cx="1736.86" cy="550.402" rx="6.28469" ry="6.02379" fill="black" fill-opacity="0.99"/>
<ellipse cx="1736.86" cy="535.343" rx="6.28469" ry="6.02379" fill="black" fill-opacity="0.99"/>
<ellipse cx="1736.86" cy="520.283" rx="6.28469" ry="6.02379" fill="black" fill-opacity="0.99"/>
<ellipse cx="1736.86" cy="505.224" rx="6.28469" ry="6.02379" fill="black" fill-opacity="0.99"/>
<ellipse cx="1736.86" cy="490.164" rx="6.28469" ry="6.02379" fill="black" fill-opacity="0.99"/>
<ellipse cx="1736.86" cy="475.105" rx="6.28469" ry="6.02379" fill="black" fill-opacity="0.99"/>
<ellipse cx="1736.86" cy="460.046" rx="6.28469" ry="6.02379" fill="black" fill-opacity="0.99"/>
<ellipse cx="1736.86" cy="444.986" rx="6.28469" ry="6.02379" fill="black" fill-opacity="0.99"/>
<ellipse cx="1736.86" cy="429.927" rx="6.28469" ry="6.02379" fill="black" fill-opacity="0.99"/>
<ellipse cx="1736.86" cy="414.867" rx="6.28469" ry="6.02379" fill="black" fill-opacity="0.99"/>
<ellipse cx="1736.86" cy="399.808" rx="6.28469" ry="6.02379" fill="black" fill-opacity="0.99"/>
<ellipse cx="1736.86" cy="384.748" rx="6.28469" ry="6.02379" fill="black" fill-opacity="0.99"/>
<ellipse cx="1736.86" cy="369.689" rx="6.28469" ry="6.02379" fill="black" fill-opacity="0.99"/>
<ellipse cx="1736.86" cy="354.629" rx="6.28469" ry="6.02379" fill="black" fill-opacity="0.99"/>
<ellipse cx="1736.86" cy="339.569" rx="6.28469" ry="6.02379" fill="black" fill-opacity="0.99"/>
<ellipse cx="1736.86" cy="324.511" rx="6.28469" ry="6.02379" fill="black" fill-opacity="0.99"/>
<ellipse cx="1736.86" cy="309.451" rx="6.28469" ry="6.02379" fill="black" fill-opacity="0.99"/>
<ellipse cx="1736.86" cy="294.392" rx="6.28469" ry="6.02379" fill="black" fill-opacity="0.99"/>
<ellipse cx="1736.86" cy="279.332" rx="6.28469" ry="6.02379" fill="black" fill-opacity="0.99"/>
<ellipse cx="1736.86" cy="264.272" rx="6.28469" ry="6.02379" fill="black" fill-opacity="0.99"/>
<ellipse cx="1736.86" cy="249.213" rx="6.28469" ry="6.02379" fill="black" fill-opacity="0.99"/>
<ellipse cx="1736.86" cy="234.154" rx="6.28469" ry="6.02379" fill="black" fill-opacity="0.99"/>
<ellipse cx="1736.86" cy="219.094" rx="6.28469" ry="6.02379" fill="black" fill-opacity="0.99"/>
<ellipse cx="1736.86" cy="204.035" rx="6.28469" ry="6.02379" fill="black" fill-opacity="0.99"/>
<ellipse cx="1736.86" cy="188.975" rx="6.28469" ry="6.02379" fill="black" fill-opacity="0.99"/>
<ellipse cx="1736.86" cy="173.915" rx="6.28469" ry="6.02379" fill="black" fill-opacity="0.99"/>
<ellipse cx="1736.86" cy="158.856" rx="6.28469" ry="6.02379" fill="black" fill-opacity="0.99"/>
<ellipse cx="1736.86" cy="143.797" rx="6.28469" ry="6.02379" fill="black" fill-opacity="0.99"/>
<ellipse cx="1736.86" cy="128.738" rx="6.28469" ry="6.02379" fill="black" fill-opacity="0.99"/>
<ellipse cx="1736.86" cy="113.678" rx="6.28469" ry="6.02379" fill="black" fill-opacity="0.99"/>
<ellipse cx="1736.86" cy="98.619" rx="6.28469" ry="6.02379" fill="black" fill-opacity="0.99"/>
<ellipse cx="1736.86" cy="83.5585" rx="6.28469" ry="6.02379" fill="black" fill-opacity="0.99"/>
<ellipse cx="1736.86" cy="68.4989" rx="6.28469" ry="6.02379" fill="black" fill-opacity="0.99"/>
<ellipse cx="1736.86" cy="53.4398" rx="6.28469" ry="6.02379" fill="black" fill-opacity="0.99"/>
<ellipse cx="1736.86" cy="38.3802" rx="6.28469" ry="6.02379" fill="black" fill-opacity="0.99"/>
<ellipse cx="1736.86" cy="23.3216" rx="6.28469" ry="6.02379" fill="black" fill-opacity="0.99"/>
<ellipse cx="1736.86" cy="8.26158" rx="6.28469" ry="6.02379" fill="black" fill-opacity="0.99"/>
</g>
<defs>
<clipPath id="clip0_113_3760">
<rect width="1791" height="904" fill="white"/>
</clipPath>
</defs>
</svg>
